<?xml version="1.0" encoding="UTF-8" standalone="no"?>
<!-- Created with Inkscape (http://www.inkscape.org/) -->

<svg
   xmlns:dc="http://purl.org/dc/elements/1.1/"
   xmlns:cc="http://creativecommons.org/ns#"
   xmlns:rdf="http://www.w3.org/1999/02/22-rdf-syntax-ns#"
   xmlns:svg="http://www.w3.org/2000/svg"
   xmlns="http://www.w3.org/2000/svg"
   xmlns:sodipodi="http://sodipodi.sourceforge.net/DTD/sodipodi-0.dtd"
   xmlns:inkscape="http://www.inkscape.org/namespaces/inkscape"
   version="1.1"
   id="svg2"
   xml:space="preserve"
   width="4096"
   height="4096"
   viewBox="0 0 4095.9999 4096"
   sodipodi:docname="anbima-logo.svg"
   inkscape:version="0.92.2 (5c3e80d, 2017-08-06)"
   inkscape:export-filename="G:\Users\suitedoalex\sites\anbima-logo-0.png"
   inkscape:export-xdpi="96"
   inkscape:export-ydpi="96"><metadata
     id="metadata8"><rdf:RDF><cc:Work
         rdf:about=""><dc:format>image/svg+xml</dc:format><dc:type
           rdf:resource="http://purl.org/dc/dcmitype/StillImage" /><dc:title></dc:title></cc:Work></rdf:RDF></metadata><defs
     id="defs6"><clipPath
       clipPathUnits="userSpaceOnUse"
       id="clipPath18"><path
         d="M 0,0 H 841.89 V 595.276 H 0 Z"
         id="path16"
         inkscape:connector-curvature="0" /></clipPath><clipPath
       clipPathUnits="userSpaceOnUse"
       id="clipPath50"><path
         d="M 0,595.275 V 210.199 h 383.974 c 0,0 168.615,7.221 257.227,118.804 v 0 c 5.29,8.078 97.406,142.62 182.117,266.272 v 0 z"
         id="path48"
         inkscape:connector-curvature="0" /></clipPath><clipPath
       clipPathUnits="userSpaceOnUse"
       id="clipPath64"><path
         d="M 0,0 H 841.89 V 595.276 H 0 Z"
         id="path62"
         inkscape:connector-curvature="0" /></clipPath><clipPath
       clipPathUnits="userSpaceOnUse"
       id="clipPath104"><path
         d="M 0,0 H 841.89 V 595.276 H 0 Z"
         id="path102"
         inkscape:connector-curvature="0" /></clipPath><clipPath
       clipPathUnits="userSpaceOnUse"
       id="clipPath120"><path
         d="M 0,0 H 841.89 V 595.276 H 0 Z"
         id="path118"
         inkscape:connector-curvature="0" /></clipPath><clipPath
       clipPathUnits="userSpaceOnUse"
       id="clipPath140"><path
         d="M 0,0 H 841.89 V 595.276 H 0 Z"
         id="path138"
         inkscape:connector-curvature="0" /></clipPath></defs><sodipodi:namedview
     pagecolor="#ffffff"
     bordercolor="#666666"
     borderopacity="1"
     objecttolerance="10"
     gridtolerance="10"
     guidetolerance="10"
     inkscape:pageopacity="0"
     inkscape:pageshadow="2"
     inkscape:window-width="1600"
     inkscape:window-height="837"
     id="namedview4"
     showgrid="false"
     inkscape:zoom="0.074335264"
     inkscape:cx="-226.8526"
     inkscape:cy="2513.8499"
     inkscape:window-x="-8"
     inkscape:window-y="-8"
     inkscape:window-maximized="1"
     inkscape:current-layer="g10" /><g
     id="g10"
     inkscape:groupmode="layer"
     inkscape:label="anbima-logo"
     transform="matrix(1.3333333,0,0,-1.3333333,0,4096)"><text
       transform="scale(1,-1)"
       style="font-variant:normal;font-weight:normal;font-stretch:normal;font-size:524.15490723px;font-family:'Dobra Book';-inkscape-font-specification:Dobra-Book;writing-mode:lr-tb;fill:#e5ffff;fill-opacity:1;fill-rule:nonzero;stroke:none;stroke-width:17.47183037"
       id="text112"
       x="-1483.7233"
       y="-3734.7356"
       inkscape:export-filename="G:\Users\suitedoalex\sites\anbima-logo-6.png"
       inkscape:export-xdpi="1.6820072"
       inkscape:export-ydpi="1.6820072"><tspan
         sodipodi:role="line"
         id="tspan110"
         x="-1483.7233"
         y="-3270.9814"
         style="stroke-width:17.47183037" /></text>
<g
       id="g114"
       transform="matrix(17.47183,0,0,17.47183,-5818.6856,385.69156)"
       inkscape:export-filename="G:\Users\suitedoalex\sites\anbima-logo-6.png"
       inkscape:export-xdpi="1.6820072"
       inkscape:export-ydpi="1.6820072"><g
         id="g116"
         clip-path="url(#clipPath120)"><g
           id="g122"
           transform="translate(437.3857,64.9464)"><path
             d="m 0,0 h -1.945 c 0,0 -5.034,-0.564 -8.06,3.799 -1.422,2.216 -15.87,23.733 -15.87,23.733 L -35.954,0 h -6.596 l 11.373,32.306 h 9.931 z"
             style="fill:#f9ae00;fill-opacity:1;fill-rule:nonzero;stroke:none"
             id="path124"
             inkscape:connector-curvature="0" /></g><g
           id="g126"
           transform="translate(404.497,64.9464)"><path
             d="m 0,0 h 1.947 c 0,0 5.035,-0.564 8.065,3.799 1.427,2.216 15.868,23.733 15.868,23.733 L 35.961,0 h 6.597 L 31.179,32.306 h -9.926 z"
             style="fill:#86bc28;fill-opacity:1;fill-rule:nonzero;stroke:none"
             id="path128"
             inkscape:connector-curvature="0" /></g></g></g><g
       id="g130"
       transform="matrix(17.47183,0,0,17.47183,1535.9913,1755.0288)"
       inkscape:export-filename="G:\Users\suitedoalex\sites\anbima-logo-6.png"
       inkscape:export-xdpi="1.6820072"
       inkscape:export-ydpi="1.6820072"><path
         d="M 0,0 -3.838,5.737 0,11.573 3.839,5.737 Z"
         style="fill:#1f92d1;fill-opacity:1;fill-rule:nonzero;stroke:none"
         id="path132"
         inkscape:connector-curvature="0" /></g><g
       id="g134"
       transform="matrix(17.47183,0,0,17.47183,-5818.6758,385.69156)"
       inkscape:export-filename="G:\Users\suitedoalex\sites\anbima-logo-6.png"
       inkscape:export-xdpi="1.6820072"
       inkscape:export-ydpi="1.6820072"><g
         id="g136"
         clip-path="url(#clipPath140)"><g
           id="g142"
           transform="translate(368.6657,56.0338)"><path
             d="M 0,0 C -0.52,0 -0.944,-0.013 -1.257,-0.031 -1.578,-0.04 -1.829,-0.076 -2.01,-0.138 -2.183,-0.191 -2.311,-0.269 -2.398,-0.385 -2.476,-0.486 -2.544,-0.625 -2.609,-0.8 L -8.73,-18.405 c -0.123,-0.365 -0.199,-0.648 -0.231,-0.86 -0.029,-0.216 0.005,-0.386 0.108,-0.507 0.103,-0.116 0.288,-0.184 0.553,-0.217 0.262,-0.029 0.632,-0.045 1.105,-0.045 0.437,0 0.791,0.009 1.055,0.034 0.28,0.018 0.489,0.051 0.632,0.103 0.153,0.06 0.26,0.139 0.323,0.233 0.071,0.103 0.129,0.224 0.172,0.367 l 1.255,3.881 h 7.455 l 1.335,-3.988 c 0.036,-0.135 0.09,-0.24 0.153,-0.323 0.062,-0.085 0.17,-0.148 0.322,-0.197 0.148,-0.049 0.372,-0.067 0.657,-0.076 0.298,-0.025 0.705,-0.034 1.23,-0.034 0.499,0 0.896,0.016 1.181,0.045 0.284,0.016 0.484,0.083 0.598,0.183 0.11,0.115 0.155,0.281 0.121,0.491 -0.029,0.218 -0.11,0.511 -0.233,0.874 L 2.928,-0.843 C 2.866,-0.648 2.789,-0.497 2.702,-0.385 2.616,-0.269 2.476,-0.191 2.267,-0.138 2.075,-0.076 1.799,-0.04 1.441,-0.031 1.089,-0.013 0.6,0 0,0 m -2.868,-12.315 2.821,8.43 2.807,-8.43 z m 31.503,12.284 c -0.372,0 -0.67,-0.018 -0.906,-0.045 -0.23,-0.023 -0.426,-0.062 -0.567,-0.125 -0.148,-0.063 -0.249,-0.133 -0.304,-0.216 -0.063,-0.08 -0.095,-0.174 -0.095,-0.269 v -9.316 c 0,-0.709 0.005,-1.448 0.018,-2.228 0.014,-0.775 0.047,-1.523 0.058,-2.234 -0.186,0.406 -0.371,0.814 -0.564,1.222 l -0.6,1.246 c -0.202,0.43 -0.422,0.855 -0.65,1.275 l -0.65,1.306 -3.872,7.251 c -0.195,0.396 -0.381,0.73 -0.565,0.994 -0.181,0.278 -0.39,0.493 -0.598,0.65 -0.206,0.153 -0.442,0.256 -0.71,0.319 -0.265,0.071 -0.588,0.107 -0.977,0.107 h -2.165 c -0.412,0 -0.759,-0.121 -1.044,-0.363 -0.273,-0.237 -0.417,-0.596 -0.417,-1.08 v -17.836 c 0,-0.105 0.027,-0.195 0.076,-0.278 0.054,-0.085 0.148,-0.155 0.281,-0.215 0.136,-0.053 0.32,-0.09 0.551,-0.123 0.239,-0.029 0.533,-0.045 0.889,-0.045 0.372,0 0.671,0.016 0.906,0.045 0.237,0.033 0.421,0.07 0.555,0.123 0.142,0.06 0.238,0.13 0.292,0.215 0.058,0.083 0.087,0.173 0.087,0.278 v 10.384 c 0,0.775 -0.007,1.53 -0.029,2.258 -0.02,0.733 -0.049,1.465 -0.058,2.205 0.233,-0.603 0.497,-1.226 0.795,-1.873 0.296,-0.634 0.587,-1.228 0.876,-1.777 l 4.934,-9.281 c 0.262,-0.511 0.491,-0.932 0.695,-1.259 0.201,-0.318 0.414,-0.572 0.625,-0.765 0.228,-0.187 0.468,-0.313 0.724,-0.385 0.266,-0.067 0.578,-0.107 0.936,-0.107 h 1.719 c 0.195,0 0.381,0.024 0.567,0.076 0.197,0.06 0.361,0.157 0.492,0.276 0.14,0.123 0.252,0.279 0.337,0.463 0.083,0.182 0.121,0.388 0.121,0.628 v 17.844 c 0,0.095 -0.024,0.189 -0.072,0.269 -0.054,0.083 -0.148,0.153 -0.278,0.216 -0.13,0.063 -0.302,0.102 -0.535,0.125 -0.238,0.027 -0.529,0.045 -0.878,0.045 m 14.66,-0.063 h -4.989 c -0.336,0 -0.621,-0.104 -0.856,-0.305 -0.222,-0.195 -0.341,-0.515 -0.341,-0.965 v -17.308 c 0,-0.446 0.119,-0.777 0.341,-0.979 0.235,-0.197 0.52,-0.291 0.856,-0.291 h 5.281 c 0.791,0 1.519,0.045 2.164,0.136 0.653,0.101 1.269,0.261 1.838,0.464 0.575,0.202 1.096,0.467 1.566,0.78 0.477,0.318 0.892,0.695 1.226,1.134 0.349,0.442 0.618,0.946 0.811,1.517 0.195,0.571 0.296,1.212 0.296,1.92 0,0.677 -0.105,1.282 -0.312,1.828 -0.199,0.541 -0.482,1.009 -0.84,1.412 -0.348,0.404 -0.762,0.738 -1.246,0.997 -0.47,0.249 -0.986,0.433 -1.548,0.534 0.439,0.163 0.829,0.378 1.165,0.647 0.35,0.26 0.643,0.569 0.876,0.919 0.238,0.345 0.417,0.73 0.537,1.147 0.124,0.433 0.185,0.883 0.185,1.367 0,0.858 -0.153,1.605 -0.462,2.241 -0.307,0.629 -0.753,1.154 -1.333,1.566 -0.571,0.419 -1.282,0.728 -2.131,0.934 -0.838,0.201 -1.869,0.305 -3.084,0.305 m -2.224,-8.174 v 5.154 h 2.041 c 0.623,0 1.12,-0.057 1.485,-0.171 0.382,-0.107 0.688,-0.273 0.937,-0.493 0.247,-0.201 0.43,-0.461 0.554,-0.777 0.118,-0.316 0.183,-0.675 0.183,-1.076 0,-0.356 -0.056,-0.701 -0.172,-1.028 -0.11,-0.314 -0.282,-0.601 -0.518,-0.843 -0.226,-0.237 -0.51,-0.423 -0.86,-0.567 -0.35,-0.132 -0.811,-0.199 -1.399,-0.199 z m 0,-8.591 v 5.647 h 2.39 c 0.74,0 1.34,-0.072 1.797,-0.202 0.458,-0.132 0.838,-0.321 1.139,-0.565 0.291,-0.251 0.515,-0.556 0.668,-0.922 0.156,-0.357 0.23,-0.763 0.23,-1.227 0,-0.441 -0.078,-0.831 -0.244,-1.182 -0.15,-0.334 -0.37,-0.623 -0.654,-0.861 -0.281,-0.222 -0.614,-0.394 -1.004,-0.517 -0.374,-0.112 -0.843,-0.171 -1.407,-0.171 z M 58.824,0 C 58.432,0 58.114,-0.018 57.856,-0.049 57.603,-0.076 57.388,-0.121 57.227,-0.166 57.072,-0.22 56.962,-0.287 56.888,-0.367 56.828,-0.45 56.799,-0.54 56.799,-0.646 v -18.745 c 0,-0.101 0.029,-0.192 0.089,-0.273 0.074,-0.085 0.184,-0.153 0.339,-0.202 0.159,-0.053 0.356,-0.09 0.613,-0.123 0.265,-0.029 0.592,-0.045 0.984,-0.045 0.397,0 0.726,0.016 0.979,0.045 0.256,0.033 0.462,0.07 0.615,0.123 0.157,0.049 0.264,0.117 0.322,0.202 0.074,0.081 0.108,0.172 0.108,0.273 v 18.745 c 0,0.106 -0.034,0.196 -0.108,0.279 -0.058,0.08 -0.165,0.147 -0.322,0.201 -0.153,0.045 -0.359,0.09 -0.615,0.117 C 59.55,-0.018 59.221,0 58.824,0 m 30.193,-0.094 h -2.714 c -0.381,0 -0.708,-0.042 -0.999,-0.121 -0.285,-0.072 -0.538,-0.202 -0.748,-0.386 -0.208,-0.185 -0.395,-0.421 -0.553,-0.716 -0.155,-0.301 -0.303,-0.664 -0.429,-1.094 l -4.515,-11.792 -4.293,11.826 c -0.126,0.428 -0.267,0.786 -0.43,1.073 -0.164,0.291 -0.368,0.529 -0.614,0.703 -0.244,0.184 -0.535,0.314 -0.872,0.386 -0.338,0.079 -0.744,0.121 -1.212,0.121 h -2.639 c -0.458,0 -0.83,-0.139 -1.103,-0.412 -0.276,-0.28 -0.414,-0.677 -0.414,-1.197 v -17.688 c 0,-0.101 0.025,-0.192 0.071,-0.273 0.067,-0.085 0.171,-0.153 0.31,-0.202 0.156,-0.053 0.352,-0.09 0.596,-0.123 0.246,-0.029 0.557,-0.045 0.92,-0.045 0.383,0 0.688,0.016 0.922,0.045 0.246,0.033 0.445,0.07 0.597,0.123 0.153,0.049 0.258,0.117 0.31,0.202 0.056,0.081 0.096,0.172 0.096,0.273 l 0.03,16.155 5.55,-16.137 c 0.031,-0.116 0.094,-0.21 0.183,-0.291 0.092,-0.085 0.215,-0.157 0.37,-0.217 0.159,-0.052 0.37,-0.092 0.612,-0.108 0.242,-0.029 0.538,-0.045 0.892,-0.045 0.347,0 0.642,0.009 0.887,0.034 0.246,0.009 0.448,0.036 0.596,0.087 0.168,0.052 0.296,0.119 0.387,0.204 0.09,0.088 0.155,0.2 0.198,0.336 l 5.785,16.137 v -16.155 c 0,-0.101 0.032,-0.192 0.09,-0.273 0.062,-0.085 0.163,-0.153 0.307,-0.202 0.145,-0.053 0.334,-0.09 0.582,-0.123 0.247,-0.029 0.553,-0.045 0.919,-0.045 0.379,0 0.692,0.016 0.936,0.045 0.247,0.033 0.44,0.07 0.585,0.123 0.15,0.049 0.258,0.117 0.307,0.202 0.068,0.081 0.097,0.172 0.097,0.273 v 17.688 c -0.007,0.256 -0.045,0.478 -0.113,0.673 -0.062,0.205 -0.158,0.376 -0.291,0.51 -0.123,0.139 -0.284,0.251 -0.488,0.319 -0.197,0.071 -0.433,0.107 -0.708,0.107 M 104.225,0 c -0.525,0 -0.937,-0.013 -1.262,-0.031 -0.314,-0.009 -0.565,-0.045 -0.749,-0.107 -0.174,-0.053 -0.304,-0.131 -0.383,-0.247 -0.08,-0.101 -0.152,-0.24 -0.215,-0.415 l -6.121,-17.605 c -0.121,-0.365 -0.197,-0.648 -0.225,-0.86 -0.031,-0.216 0,-0.386 0.104,-0.507 0.103,-0.116 0.287,-0.184 0.553,-0.217 0.266,-0.029 0.632,-0.045 1.107,-0.045 0.437,0 0.791,0.009 1.055,0.034 0.274,0.018 0.489,0.051 0.628,0.103 0.152,0.06 0.26,0.139 0.322,0.233 0.072,0.103 0.128,0.224 0.171,0.367 l 1.254,3.881 h 7.46 l 1.331,-3.988 c 0.042,-0.135 0.096,-0.24 0.154,-0.323 0.061,-0.085 0.168,-0.148 0.323,-0.197 0.15,-0.049 0.372,-0.067 0.66,-0.076 0.294,-0.025 0.707,-0.034 1.224,-0.034 0.504,0 0.899,0.016 1.181,0.045 0.287,0.016 0.491,0.083 0.599,0.183 0.114,0.115 0.154,0.281 0.123,0.491 -0.027,0.218 -0.108,0.511 -0.226,0.874 l -6.138,17.598 c -0.065,0.195 -0.139,0.346 -0.231,0.458 -0.085,0.116 -0.224,0.194 -0.428,0.247 -0.197,0.062 -0.474,0.098 -0.831,0.107 C 105.309,-0.013 104.827,0 104.225,0 m -2.869,-12.315 2.826,8.43 2.801,-8.43 z"
             style="fill:#545051;fill-opacity:1;fill-rule:nonzero;stroke:none"
             id="path144"
             inkscape:connector-curvature="0" /></g></g></g></g></svg>