<?xml version="1.0" encoding="UTF-8" standalone="no"?>
<!-- Created with Inkscape (http://www.inkscape.org/) -->

<svg
   xmlns:dc="http://purl.org/dc/elements/1.1/"
   xmlns:cc="http://creativecommons.org/ns#"
   xmlns:rdf="http://www.w3.org/1999/02/22-rdf-syntax-ns#"
   xmlns:svg="http://www.w3.org/2000/svg"
   xmlns="http://www.w3.org/2000/svg"
   xmlns:sodipodi="http://sodipodi.sourceforge.net/DTD/sodipodi-0.dtd"
   xmlns:inkscape="http://www.inkscape.org/namespaces/inkscape"
   version="1.1"
   id="svg2"
   xml:space="preserve"
   width="4096"
   height="4096"
   viewBox="0 0 4096 4096"
   sodipodi:docname="cvm-logo.svg"
   inkscape:version="0.92.2 (5c3e80d, 2017-08-06)"><metadata
     id="metadata8"><rdf:RDF><cc:Work
         rdf:about=""><dc:format>image/svg+xml</dc:format><dc:type
           rdf:resource="http://purl.org/dc/dcmitype/StillImage" /><dc:title></dc:title></cc:Work></rdf:RDF></metadata><defs
     id="defs6"><clipPath
       clipPathUnits="userSpaceOnUse"
       id="clipPath34"><path
         d="M 244.879,59.528 H 391.181 V 190.056 H 244.879 Z"
         id="path32"
         inkscape:connector-curvature="0" /></clipPath><clipPath
       clipPathUnits="userSpaceOnUse"
       id="clipPath72"><path
         d="M 0,0 H 419.528 V 595.276 H 0 Z"
         id="path70"
         inkscape:connector-curvature="0" /></clipPath><clipPath
       clipPathUnits="userSpaceOnUse"
       id="clipPath92"><path
         d="m 42.52,70.866 h 94.488 v 55.857 H 42.52 Z"
         id="path90"
         inkscape:connector-curvature="0" /></clipPath><clipPath
       clipPathUnits="userSpaceOnUse"
       id="clipPath118"><path
         d="M 42.519653,80.997255 H 137.0079 V 80.014788 H 42.519653 Z"
         id="path116"
         inkscape:connector-curvature="0" /></clipPath><linearGradient
       x1="0"
       y1="0"
       x2="1"
       y2="0"
       gradientUnits="userSpaceOnUse"
       gradientTransform="matrix(26.288211,0,0,-26.288211,111.50281,80.506007)"
       spreadMethod="pad"
       id="linearGradient124"><stop
         style="stop-opacity:1;stop-color:#fbc707"
         offset="0"
         id="stop120" /><stop
         style="stop-opacity:1;stop-color:#ffffff"
         offset="1"
         id="stop122" /></linearGradient><clipPath
       clipPathUnits="userSpaceOnUse"
       id="clipPath134"><path
         d="m 42.52,70.866 h 94.488 v 55.857 H 42.52 Z"
         id="path132"
         inkscape:connector-curvature="0" /></clipPath><clipPath
       clipPathUnits="userSpaceOnUse"
       id="clipPath158"><path
         d="m 57.68,99.465 -13.628,13.629 v -6.805 L 57.68,92.642 71.309,106.289 v 6.805 z"
         id="path156"
         inkscape:connector-curvature="0" /></clipPath><clipPath
       clipPathUnits="userSpaceOnUse"
       id="clipPath176"><path
         d="m 57.68,99.465 -13.628,13.629 v -6.805 L 57.68,92.642 71.309,106.289 v 6.805 z"
         id="path174"
         inkscape:connector-curvature="0" /></clipPath><clipPath
       clipPathUnits="userSpaceOnUse"
       id="clipPath184"><path
         d="m 42.52,80.997 h 94.488 V 80.015 H 42.52 Z"
         id="path182"
         inkscape:connector-curvature="0" /></clipPath><clipPath
       clipPathUnits="userSpaceOnUse"
       id="clipPath202"><path
         d="M 42.519653,80.997255 H 137.0079 V 80.014788 H 42.519653 Z"
         id="path200"
         inkscape:connector-curvature="0" /></clipPath><linearGradient
       x1="0"
       y1="0"
       x2="1"
       y2="0"
       gradientUnits="userSpaceOnUse"
       gradientTransform="matrix(26.288211,0,0,-26.288211,111.50281,80.506007)"
       spreadMethod="pad"
       id="linearGradient208"><stop
         style="stop-opacity:1;stop-color:#fbc707"
         offset="0"
         id="stop204" /><stop
         style="stop-opacity:1;stop-color:#f9c311"
         offset="1"
         id="stop206" /></linearGradient><clipPath
       clipPathUnits="userSpaceOnUse"
       id="clipPath218"><path
         d="m 57.68,99.465 -13.628,13.629 v -6.805 L 57.68,92.642 71.309,106.289 v 6.805 z"
         id="path216"
         inkscape:connector-curvature="0" /></clipPath><clipPath
       clipPathUnits="userSpaceOnUse"
       id="clipPath242"><path
         d="m 42.52,70.866 h 94.488 v 55.857 H 42.52 Z"
         id="path240"
         inkscape:connector-curvature="0" /></clipPath></defs><sodipodi:namedview
     pagecolor="#ffffff"
     bordercolor="#666666"
     borderopacity="1"
     objecttolerance="10"
     gridtolerance="10"
     guidetolerance="10"
     inkscape:pageopacity="0"
     inkscape:pageshadow="2"
     inkscape:window-width="1600"
     inkscape:window-height="837"
     id="namedview4"
     showgrid="false"
     inkscape:zoom="0.10512594"
     inkscape:cx="476.17201"
     inkscape:cy="2204.8941"
     inkscape:window-x="-8"
     inkscape:window-y="-8"
     inkscape:window-maximized="1"
     inkscape:current-layer="g10" /><g
     id="g10"
     inkscape:groupmode="layer"
     inkscape:label="cvm-logo"
     transform="matrix(1.3333333,0,0,-1.3333333,0,4096)"><g
       id="g128"
       transform="matrix(25.523899,0,0,25.523899,-758.00377,-1151.604)"
       inkscape:export-filename="G:\Users\suitedoalex\sites\cvm-logo-6.png"
       inkscape:export-xdpi="21.356455"
       inkscape:export-ydpi="21.356455"><g
         id="g130"
         clip-path="url(#clipPath134)"><g
           id="g144"
           transform="translate(57.6803,126.7225)"><path
             d="m 0,0 v -6.832 l 6.796,-6.796 h 6.832 z"
             style="fill:#8fb195;fill-opacity:1;fill-rule:nonzero;stroke:none"
             id="path146"
             inkscape:connector-curvature="0" /></g><g
           id="g148"
           transform="translate(57.6623,99.4747)"><path
             d="M 0,0 -13.61,13.619 0,27.23 V 20.398 L -6.814,13.619 0,6.832 Z m 0.018,27.212 v -6.76 L 6.814,13.619 H 13.61 L 0.018,-0.009 0,0 V 6.832 L 0.018,6.814 6.814,13.619 0.018,20.416 0,20.398 v 6.832 l 0.018,0.018 z"
             style="fill:#4b8c6a;fill-opacity:1;fill-rule:nonzero;stroke:none"
             id="path150"
             inkscape:connector-curvature="0" /></g></g></g><g
       id="g152"
       transform="matrix(25.523899,0,0,25.523899,-758.00377,-1151.604)"
       inkscape:export-filename="G:\Users\suitedoalex\sites\cvm-logo-6.png"
       inkscape:export-xdpi="21.356455"
       inkscape:export-ydpi="21.356455"><g
         id="g154"
         clip-path="url(#clipPath158)"><path
           d="M 35.039,122.108 H 80.323 V 83.629 H 35.039 Z"
           style="fill:#fbc71a;fill-opacity:1;fill-rule:nonzero;stroke:none"
           id="path160"
           inkscape:connector-curvature="0" /><g
           id="g162"
           transform="translate(47.1256,85.9545)"><path
             d="m 0,0 c -0.045,-0.18 -0.072,-0.378 -0.072,-0.586 0,-0.198 0.027,-0.369 0.072,-0.532 z M -0.252,1.902 C -0.397,2.127 -0.577,2.29 -0.784,2.398 -1.001,2.506 -1.253,2.56 -1.559,2.56 -1.884,2.56 -2.181,2.497 -2.452,2.362 -2.713,2.226 -2.938,2.019 -3.128,1.758 -3.299,1.514 -3.425,1.235 -3.524,0.928 -3.614,0.622 -3.668,0.307 -3.668,-0.009 c 0,-0.541 0.144,-0.973 0.414,-1.28 0.28,-0.315 0.658,-0.468 1.136,-0.468 0.297,0 0.586,0.063 0.856,0.18 0.271,0.117 0.532,0.297 0.793,0.55 l 0.054,-0.063 c -0.054,-0.1 -0.099,-0.199 -0.135,-0.316 -0.036,-0.108 -0.063,-0.225 -0.081,-0.351 -0.27,-0.118 -0.532,-0.199 -0.775,-0.244 -0.252,-0.054 -0.496,-0.081 -0.73,-0.081 -0.694,0 -1.244,0.189 -1.641,0.568 -0.396,0.378 -0.594,0.901 -0.594,1.568 0,0.361 0.063,0.703 0.189,1.046 0.135,0.333 0.315,0.631 0.559,0.901 0.27,0.289 0.586,0.514 0.955,0.658 0.361,0.144 0.775,0.216 1.235,0.216 0.279,0 0.55,-0.027 0.802,-0.09 C -0.406,2.74 -0.189,2.659 0,2.569 V 2.389 C -0.027,2.335 -0.045,2.281 -0.072,2.226 -0.108,2.127 -0.135,2.019 -0.153,1.902 Z M 1.686,1.433 V 1.145 C 1.397,1.082 1.154,0.901 0.946,0.595 0.694,0.216 0.559,-0.243 0.559,-0.784 c 0,-0.325 0.081,-0.577 0.225,-0.757 0.154,-0.171 0.361,-0.262 0.64,-0.262 0.09,0 0.172,0.009 0.262,0.027 v -0.288 c -0.073,0 -0.145,-0.009 -0.226,-0.009 -0.469,0 -0.838,0.135 -1.117,0.406 C 0.18,-1.514 0.072,-1.334 0,-1.118 V 0 C 0.09,0.316 0.243,0.595 0.469,0.848 0.802,1.199 1.208,1.397 1.686,1.433 M 0,2.569 C 0.027,2.56 0.054,2.542 0.081,2.533 0.054,2.488 0.027,2.434 0,2.389 Z m 14.395,-3.642 h 0.117 c 0.036,-0.225 0.126,-0.396 0.261,-0.531 0.144,-0.127 0.325,-0.19 0.541,-0.19 0.207,0 0.378,0.063 0.514,0.181 0.126,0.126 0.189,0.279 0.189,0.469 0,0.234 -0.216,0.45 -0.64,0.63 -0.027,0.009 -0.045,0.018 -0.063,0.028 -0.271,0.117 -0.46,0.243 -0.568,0.369 -0.108,0.135 -0.162,0.306 -0.162,0.505 0,0.306 0.108,0.559 0.324,0.757 0.217,0.198 0.496,0.297 0.839,0.297 0.189,0 0.36,-0.018 0.513,-0.063 C 16.413,1.334 16.567,1.271 16.702,1.19 16.657,1.109 16.621,1.019 16.594,0.928 16.567,0.839 16.54,0.73 16.522,0.622 H 16.423 C 16.36,0.811 16.278,0.947 16.161,1.037 16.053,1.127 15.9,1.172 15.729,1.172 15.548,1.172 15.404,1.118 15.287,1.001 15.17,0.892 15.116,0.757 15.116,0.595 c 0,-0.225 0.198,-0.424 0.613,-0.586 0.027,-0.009 0.045,-0.018 0.063,-0.027 0.288,-0.126 0.495,-0.243 0.604,-0.379 0.117,-0.135 0.171,-0.297 0.171,-0.513 0,-0.343 -0.126,-0.622 -0.37,-0.838 -0.243,-0.226 -0.559,-0.334 -0.955,-0.334 -0.208,0 -0.397,0.036 -0.586,0.099 -0.18,0.063 -0.343,0.153 -0.478,0.271 0.027,0.117 0.063,0.234 0.099,0.342 0.036,0.108 0.072,0.207 0.118,0.297 m -2.705,0 h 0.118 c 0.036,-0.225 0.126,-0.396 0.27,-0.531 0.135,-0.127 0.315,-0.19 0.532,-0.19 0.216,0 0.378,0.063 0.514,0.181 0.126,0.126 0.189,0.279 0.189,0.469 0,0.234 -0.207,0.45 -0.64,0.63 -0.027,0.009 -0.045,0.018 -0.063,0.028 -0.27,0.117 -0.46,0.243 -0.568,0.369 -0.108,0.135 -0.162,0.306 -0.162,0.505 0,0.306 0.108,0.559 0.324,0.757 0.217,0.198 0.496,0.297 0.839,0.297 0.189,0 0.36,-0.018 0.513,-0.063 C 13.709,1.334 13.863,1.271 13.998,1.19 13.962,1.109 13.926,1.019 13.89,0.928 13.863,0.839 13.836,0.73 13.818,0.622 h -0.1 c -0.053,0.189 -0.144,0.325 -0.261,0.415 -0.108,0.09 -0.252,0.135 -0.433,0.135 -0.18,0 -0.324,-0.054 -0.441,-0.171 -0.117,-0.109 -0.171,-0.244 -0.171,-0.406 0,-0.225 0.207,-0.424 0.612,-0.586 0.027,-0.009 0.046,-0.018 0.064,-0.027 0.297,-0.126 0.495,-0.243 0.604,-0.379 0.117,-0.135 0.171,-0.297 0.171,-0.513 0,-0.343 -0.126,-0.622 -0.37,-0.838 -0.243,-0.226 -0.559,-0.334 -0.955,-0.334 -0.207,0 -0.397,0.036 -0.586,0.099 -0.18,0.063 -0.343,0.153 -0.478,0.271 0.027,0.117 0.063,0.234 0.099,0.342 0.036,0.108 0.072,0.207 0.117,0.297 m -1.757,-0.91 c 0.189,0.721 0.342,1.37 0.441,1.947 0.109,0.586 0.172,1.046 0.181,1.397 0.063,-0.009 0.126,-0.018 0.189,-0.027 h 0.171 0.181 c 0.054,0.009 0.126,0.018 0.189,0.027 -0.189,-0.667 -0.325,-1.28 -0.433,-1.847 -0.099,-0.569 -0.162,-1.073 -0.189,-1.497 -0.099,0.009 -0.18,0.018 -0.234,0.027 H 10.293 10.167 C 10.113,-1.965 10.041,-1.974 9.933,-1.983 m 0.802,4.561 c 0,0.108 0.036,0.189 0.099,0.252 0.063,0.064 0.153,0.09 0.253,0.09 0.108,0 0.189,-0.026 0.252,-0.09 0.054,-0.054 0.081,-0.144 0.081,-0.252 0,-0.09 -0.027,-0.171 -0.099,-0.243 -0.063,-0.063 -0.144,-0.099 -0.243,-0.099 -0.099,0 -0.181,0.036 -0.244,0.099 -0.063,0.063 -0.099,0.144 -0.099,0.243 M 6.048,-1.983 c 0.135,0.523 0.243,1.01 0.325,1.451 0.081,0.442 0.126,0.757 0.126,0.956 0,0.198 -0.054,0.342 -0.145,0.45 C 6.255,0.974 6.111,1.019 5.931,1.019 5.498,1.019 5.165,0.802 4.939,0.352 4.714,-0.09 4.561,-0.874 4.462,-1.983 4.39,-1.974 4.326,-1.965 4.272,-1.965 4.209,-1.956 4.164,-1.956 4.119,-1.956 H 4.002 C 3.957,-1.965 3.885,-1.974 3.795,-1.983 3.966,-1.343 4.092,-0.73 4.2,-0.153 4.308,0.424 4.372,0.928 4.399,1.361 4.462,1.352 4.525,1.343 4.579,1.334 H 4.705 4.867 C 4.93,1.343 4.985,1.352 5.048,1.361 5.002,1.244 4.966,1.127 4.939,1.019 4.912,0.911 4.885,0.802 4.867,0.694 c 0.19,0.262 0.388,0.451 0.604,0.568 0.208,0.117 0.442,0.18 0.703,0.18 0.289,0 0.505,-0.063 0.658,-0.189 C 6.985,1.127 7.067,0.947 7.085,0.703 7.283,0.947 7.499,1.136 7.725,1.262 7.95,1.379 8.184,1.442 8.446,1.442 8.743,1.442 8.977,1.37 9.14,1.217 9.311,1.064 9.392,0.856 9.392,0.595 9.392,0.442 9.338,0.081 9.23,-0.496 9.122,-1.064 9.04,-1.568 8.977,-1.983 8.923,-1.974 8.869,-1.965 8.806,-1.965 8.752,-1.956 8.707,-1.956 8.653,-1.956 H 8.491 C 8.437,-1.965 8.374,-1.974 8.31,-1.983 c 0.136,0.523 0.244,1.01 0.325,1.451 0.081,0.442 0.117,0.757 0.117,0.956 0,0.198 -0.045,0.342 -0.135,0.45 C 8.518,0.974 8.374,1.019 8.193,1.019 7.752,1.019 7.427,0.802 7.202,0.352 6.976,-0.09 6.823,-0.874 6.724,-1.983 6.67,-1.974 6.607,-1.965 6.553,-1.956 H 6.382 6.255 C 6.201,-1.965 6.138,-1.974 6.048,-1.983 M 1.686,-2.064 v 0.288 c 0.261,0.073 0.495,0.253 0.703,0.55 0.279,0.388 0.414,0.857 0.414,1.407 0,0.297 -0.081,0.54 -0.243,0.72 C 2.398,1.082 2.19,1.172 1.92,1.172 H 1.902 C 1.83,1.172 1.749,1.163 1.686,1.145 V 1.433 H 1.821 C 2.334,1.433 2.731,1.307 3.01,1.046 3.299,0.784 3.443,0.424 3.443,-0.036 3.443,-0.604 3.245,-1.081 2.866,-1.478 2.533,-1.821 2.145,-2.01 1.686,-2.064 m 16.611,1.965 v -0.298 c -0.234,-0.072 -0.414,-0.153 -0.531,-0.261 -0.154,-0.135 -0.235,-0.306 -0.235,-0.514 0,-0.153 0.054,-0.279 0.144,-0.369 0.091,-0.099 0.208,-0.144 0.361,-0.144 0.09,0 0.18,0.009 0.261,0.045 v -0.316 c -0.153,-0.063 -0.315,-0.099 -0.486,-0.099 -0.271,0 -0.478,0.072 -0.631,0.216 -0.163,0.154 -0.235,0.352 -0.235,0.595 0,0.325 0.099,0.568 0.316,0.748 0.198,0.163 0.541,0.298 1.036,0.397 m 0,1.514 V 1.136 C 18.216,1.109 18.144,1.073 18.072,1.037 17.91,0.938 17.784,0.802 17.693,0.631 l -0.117,0.018 c 0.018,0.072 0.027,0.135 0.036,0.199 0.009,0.063 0.018,0.126 0.018,0.189 v 0.054 c -0.009,0.027 -0.009,0.054 -0.009,0.063 0.172,0.108 0.343,0.18 0.523,0.225 0.045,0.018 0.099,0.027 0.153,0.036 m 0,1.154 V 2.173 C 18.27,2.154 18.234,2.145 18.216,2.118 18.171,2.073 18.135,2.01 18.117,1.92 h -0.216 c 0.036,0.225 0.099,0.396 0.207,0.514 0.054,0.063 0.117,0.108 0.189,0.135 m 0,-0.396 v 0.396 c 0.063,0.027 0.136,0.036 0.217,0.036 0.027,0 0.063,0 0.099,-0.009 0.036,0 0.081,-0.009 0.144,-0.027 l 0.46,-0.117 c 0.036,-0.009 0.072,-0.018 0.108,-0.027 0.036,0 0.072,-0.009 0.09,-0.009 0.099,0 0.171,0.018 0.225,0.063 0.054,0.036 0.09,0.108 0.118,0.207 h 0.189 C 19.902,2.461 19.83,2.29 19.712,2.173 19.604,2.046 19.46,1.992 19.298,1.992 c -0.036,0 -0.081,0 -0.126,0.009 -0.036,0.009 -0.091,0.018 -0.144,0.036 l -0.442,0.117 c -0.036,0.009 -0.072,0.019 -0.108,0.019 -0.036,0.008 -0.063,0.008 -0.091,0.008 -0.036,0 -0.063,0 -0.09,-0.008 m 0,-4.129 v 0.316 c 0.108,0.036 0.208,0.09 0.298,0.162 0.18,0.144 0.288,0.306 0.324,0.487 l 0.145,0.775 -0.577,-0.135 C 18.424,-0.36 18.36,-0.378 18.297,-0.397 v 0.298 c 0.027,0.009 0.045,0.009 0.072,0.018 l 0.586,0.108 c 0.091,0.018 0.163,0.081 0.199,0.171 0.045,0.091 0.072,0.235 0.072,0.415 0,0.171 -0.054,0.315 -0.162,0.415 -0.109,0.099 -0.253,0.144 -0.433,0.144 -0.117,0 -0.234,-0.009 -0.334,-0.036 v 0.279 c 0.127,0.027 0.262,0.036 0.406,0.036 0.343,0 0.604,-0.072 0.784,-0.216 0.189,-0.144 0.28,-0.361 0.28,-0.631 0,-0.081 -0.009,-0.18 -0.019,-0.297 C 19.73,0.189 19.712,0.063 19.685,-0.072 l -0.243,-1.181 c -0.009,-0.054 -0.018,-0.099 -0.018,-0.144 -0.009,-0.045 -0.009,-0.09 -0.009,-0.126 0,-0.072 0.018,-0.117 0.054,-0.153 0.036,-0.036 0.081,-0.055 0.153,-0.055 0.027,0 0.054,0 0.09,0.009 0.028,0 0.073,0.019 0.136,0.037 l 0.09,-0.181 c -0.108,-0.063 -0.216,-0.108 -0.316,-0.135 -0.099,-0.036 -0.198,-0.045 -0.297,-0.045 -0.144,0 -0.261,0.045 -0.352,0.135 -0.081,0.09 -0.126,0.217 -0.135,0.388 -0.162,-0.18 -0.315,-0.316 -0.487,-0.406 -0.018,-0.009 -0.036,-0.018 -0.054,-0.027 m 3.795,3.389 V 1.145 C 21.813,1.082 21.569,0.901 21.362,0.595 21.11,0.216 20.974,-0.243 20.974,-0.784 c 0,-0.325 0.073,-0.577 0.226,-0.757 0.153,-0.171 0.36,-0.262 0.631,-0.262 0.09,0 0.18,0.009 0.261,0.027 v -0.288 c -0.063,0 -0.144,-0.009 -0.216,-0.009 -0.469,0 -0.839,0.135 -1.118,0.406 -0.279,0.261 -0.415,0.631 -0.415,1.081 0,0.559 0.181,1.037 0.541,1.434 0.334,0.351 0.739,0.549 1.208,0.585 m 0,-3.497 v 0.288 c 0.27,0.073 0.505,0.253 0.712,0.55 0.28,0.388 0.415,0.857 0.415,1.407 0,0.297 -0.081,0.54 -0.244,0.72 -0.162,0.181 -0.378,0.271 -0.649,0.271 h -0.009 c -0.081,0 -0.153,-0.009 -0.225,-0.027 v 0.288 h 0.144 c 0.505,0 0.902,-0.126 1.19,-0.387 0.289,-0.262 0.424,-0.622 0.424,-1.082 0,-0.568 -0.19,-1.045 -0.568,-1.442 -0.334,-0.343 -0.73,-0.532 -1.19,-0.586 m 5.561,3.497 V 1.019 C 27.401,0.956 27.176,0.793 26.995,0.523 26.761,0.171 26.644,-0.261 26.644,-0.784 c 0,-0.297 0.063,-0.532 0.189,-0.685 0.135,-0.162 0.316,-0.243 0.559,-0.243 0.09,0 0.18,0.009 0.261,0.027 v -0.316 c -0.144,-0.045 -0.297,-0.063 -0.459,-0.063 -0.361,0 -0.649,0.126 -0.875,0.388 -0.216,0.252 -0.324,0.595 -0.324,1.018 0,0.595 0.171,1.091 0.523,1.497 0.306,0.36 0.685,0.558 1.135,0.594 m 2.281,-1.46 c -0.045,-0.18 -0.063,-0.37 -0.063,-0.568 0,-0.18 0.018,-0.342 0.063,-0.495 z m 0,3.263 V 3.02 C 29.717,2.244 29.528,1.46 29.366,0.658 c -0.18,-0.883 -0.334,-1.767 -0.46,-2.641 -0.063,0 -0.108,0.009 -0.162,0.009 -0.054,0.009 -0.099,0.009 -0.135,0.009 -0.036,0 -0.09,0 -0.145,-0.009 -0.054,0 -0.117,-0.009 -0.18,-0.009 l 0.126,0.487 C 28.221,-1.694 28.032,-1.839 27.834,-1.929 27.78,-1.956 27.716,-1.983 27.653,-2.001 v 0.316 c 0.253,0.063 0.469,0.234 0.649,0.495 0.244,0.343 0.361,0.784 0.361,1.307 0,0.298 -0.063,0.532 -0.199,0.685 -0.135,0.163 -0.333,0.244 -0.585,0.244 -0.081,0 -0.153,-0.009 -0.226,-0.027 v 0.414 c 0.054,0.009 0.109,0.009 0.163,0.009 0.234,0 0.45,-0.063 0.63,-0.189 0.181,-0.135 0.307,-0.306 0.388,-0.541 l 0.162,0.775 c 0.063,0.352 0.126,0.667 0.181,0.947 0.054,0.288 0.099,0.559 0.135,0.811 0.081,-0.009 0.153,-0.027 0.198,-0.027 0.054,-0.009 0.09,-0.009 0.117,-0.009 0.045,0 0.099,0 0.162,0.009 0.046,0.009 0.091,0.009 0.145,0.018 m 0,-0.216 v 0.216 c 0.018,0.009 0.045,0.009 0.063,0.009 C 29.979,3.173 29.952,3.101 29.934,3.02 m 1.55,-1.587 V 1.154 C 31.322,1.109 31.169,1.019 31.033,0.865 30.844,0.658 30.718,0.37 30.637,0.009 c 0.063,0 0.153,0 0.27,-0.009 h 0.541 0.036 V -0.27 H 31.223 C 30.97,-0.279 30.754,-0.279 30.574,-0.279 30.565,-0.36 30.556,-0.433 30.547,-0.505 v -0.216 c 0,-0.324 0.081,-0.577 0.234,-0.757 0.162,-0.171 0.397,-0.261 0.694,-0.261 h 0.009 v -0.343 h -0.126 c -0.451,0 -0.811,0.135 -1.082,0.397 -0.162,0.171 -0.279,0.369 -0.342,0.595 v 1.063 c 0.081,0.334 0.234,0.631 0.459,0.892 0.298,0.334 0.658,0.523 1.091,0.568 m 0,-1.703 V 0 h 0.559 c 0.117,0.009 0.207,0.009 0.27,0.009 0.009,0.081 0.018,0.144 0.018,0.189 v 0.145 c 0,0.261 -0.054,0.459 -0.171,0.613 -0.117,0.144 -0.27,0.216 -0.478,0.216 -0.072,0 -0.135,0 -0.198,-0.018 v 0.279 c 0.072,0.009 0.144,0.018 0.225,0.018 0.388,0 0.694,-0.126 0.911,-0.36 0.225,-0.243 0.333,-0.577 0.333,-1.001 0,-0.027 0,-0.072 -0.009,-0.135 0,-0.063 -0.009,-0.144 -0.018,-0.234 h -0.162 c -0.514,0.009 -0.883,0.009 -1.1,0.009 z m 0,-1.812 v 0.343 c 0.189,0 0.361,0.045 0.532,0.126 0.18,0.081 0.36,0.225 0.55,0.405 l 0.09,-0.063 c -0.036,-0.072 -0.072,-0.144 -0.099,-0.216 -0.027,-0.081 -0.054,-0.162 -0.072,-0.244 -0.199,-0.117 -0.388,-0.207 -0.568,-0.27 -0.136,-0.045 -0.28,-0.072 -0.433,-0.081 m 7.247,1.685 c -0.054,-0.026 -0.108,-0.063 -0.153,-0.099 -0.208,-0.18 -0.316,-0.423 -0.316,-0.748 0,-0.243 0.081,-0.441 0.235,-0.595 0.063,-0.063 0.144,-0.108 0.234,-0.144 z m 0,3.155 V 1.992 C 38.244,1.154 37.83,0.433 37.478,-0.189 37.036,-1 36.721,-1.595 36.559,-1.983 c -0.082,0.009 -0.135,0.018 -0.172,0.027 h -0.072 -0.072 c -0.027,-0.009 -0.081,-0.018 -0.153,-0.027 -0.036,0.46 -0.135,1.091 -0.289,1.902 -0.153,0.802 -0.36,1.758 -0.63,2.857 0.09,-0.009 0.171,-0.018 0.234,-0.018 0.072,-0.009 0.126,-0.009 0.162,-0.009 0.045,0 0.099,0 0.153,0.009 0.063,0 0.136,0.009 0.226,0.018 0.036,-0.333 0.081,-0.667 0.135,-1.009 0.045,-0.343 0.108,-0.73 0.18,-1.172 l 0.298,-1.758 1.018,1.911 c 0.261,0.478 0.469,0.866 0.604,1.163 0.144,0.297 0.262,0.586 0.37,0.865 0.072,-0.009 0.135,-0.018 0.18,-0.018 m 0.297,-3.019 v -0.451 c -0.117,-0.126 -0.171,-0.279 -0.171,-0.46 0,-0.153 0.045,-0.279 0.135,-0.369 0.009,-0.018 0.027,-0.027 0.036,-0.036 v -0.478 c -0.108,0.009 -0.207,0.036 -0.297,0.072 v 1.586 c 0.081,0.055 0.18,0.1 0.297,0.136 m 0,1.469 V 0.649 c 0,-0.009 -0.009,-0.009 -0.009,-0.018 l -0.126,0.018 c 0.018,0.072 0.036,0.135 0.045,0.199 0.009,0.063 0.009,0.126 0.009,0.189 v 0.054 0.063 c 0.027,0.018 0.054,0.036 0.081,0.054 m 0,1.55 V 2.488 C 38.929,2.316 38.83,2.154 38.731,1.992 v 0.766 c 0.009,0 0.009,0 0.018,-0.009 h 0.117 0.126 c 0.009,0.009 0.018,0.009 0.036,0.009 m 2.614,-4.741 c 0.253,0.983 0.46,1.911 0.622,2.794 0.171,0.884 0.289,1.695 0.37,2.434 h 0.018 c 0.162,-0.018 0.27,-0.027 0.306,-0.027 h 0.135 c 0.055,0.009 0.127,0.018 0.226,0.027 -0.216,-0.92 -0.406,-1.821 -0.568,-2.704 -0.162,-0.883 -0.307,-1.722 -0.406,-2.524 -0.09,0.009 -0.153,0.018 -0.207,0.027 H 41.994 41.877 C 41.823,-1.965 41.75,-1.974 41.642,-1.983 m -2.614,4.471 v 0.27 c 0.045,0.009 0.1,0.009 0.172,0.018 C 39.146,2.677 39.082,2.587 39.028,2.488 m 0,-4.543 v 0.478 c 0.091,-0.072 0.199,-0.108 0.325,-0.108 0.198,0 0.387,0.072 0.568,0.207 0.171,0.144 0.279,0.306 0.315,0.487 l 0.144,0.775 -0.568,-0.135 c -0.333,-0.072 -0.576,-0.172 -0.73,-0.307 -0.018,-0.018 -0.036,-0.036 -0.054,-0.054 v 0.451 c 0.181,0.072 0.406,0.126 0.667,0.18 l 0.586,0.108 c 0.09,0.018 0.153,0.081 0.198,0.171 0.046,0.091 0.064,0.235 0.064,0.415 0,0.171 -0.054,0.315 -0.154,0.415 -0.108,0.099 -0.252,0.144 -0.441,0.144 -0.208,0 -0.397,-0.045 -0.55,-0.135 -0.162,-0.09 -0.279,-0.217 -0.37,-0.388 v 0.559 c 0.145,0.072 0.289,0.135 0.433,0.171 0.18,0.054 0.36,0.072 0.559,0.072 0.342,0 0.604,-0.072 0.793,-0.216 0.18,-0.144 0.27,-0.361 0.27,-0.631 0,-0.081 0,-0.18 -0.018,-0.297 -0.017,-0.118 -0.036,-0.244 -0.063,-0.379 l -0.234,-1.181 c -0.009,-0.054 -0.018,-0.099 -0.027,-0.144 0,-0.045 -0.009,-0.09 -0.009,-0.126 0,-0.072 0.018,-0.117 0.054,-0.153 0.036,-0.036 0.09,-0.055 0.153,-0.055 0.027,0 0.063,0 0.09,0.009 0.036,0 0.082,0.019 0.136,0.037 l 0.09,-0.181 c -0.108,-0.063 -0.217,-0.108 -0.316,-0.135 -0.099,-0.036 -0.189,-0.045 -0.288,-0.045 -0.153,0 -0.271,0.045 -0.352,0.135 -0.081,0.09 -0.135,0.217 -0.135,0.388 -0.162,-0.18 -0.324,-0.316 -0.487,-0.406 -0.171,-0.081 -0.351,-0.126 -0.541,-0.126 z M 45.14,1.433 V 1.145 C 44.86,1.082 44.617,0.901 44.409,0.595 44.148,0.216 44.022,-0.243 44.022,-0.784 c 0,-0.325 0.072,-0.577 0.225,-0.757 0.144,-0.171 0.361,-0.262 0.631,-0.262 0.09,0 0.18,0.009 0.262,0.027 v -0.288 c -0.073,0 -0.145,-0.009 -0.217,-0.009 -0.469,0 -0.847,0.135 -1.126,0.406 -0.271,0.261 -0.415,0.631 -0.415,1.081 0,0.559 0.18,1.037 0.55,1.434 0.333,0.351 0.73,0.549 1.208,0.585 m 2.109,-3.416 c 0.171,0.64 0.306,1.253 0.405,1.83 0.108,0.577 0.171,1.081 0.199,1.514 0.063,-0.009 0.126,-0.018 0.18,-0.027 h 0.126 0.162 l 0.162,0.027 C 48.456,1.253 48.42,1.145 48.403,1.037 48.375,0.928 48.357,0.811 48.339,0.694 c 0.153,0.225 0.325,0.415 0.496,0.541 0.18,0.126 0.352,0.189 0.514,0.189 0.027,0 0.054,0 0.09,-0.009 0.027,0 0.063,-0.009 0.099,-0.018 C 49.502,1.298 49.484,1.199 49.466,1.109 49.448,1.01 49.439,0.911 49.439,0.82 c -0.081,0.009 -0.144,0.028 -0.198,0.036 -0.054,0 -0.1,0.009 -0.136,0.009 -0.324,0 -0.567,-0.198 -0.739,-0.595 -0.171,-0.396 -0.315,-1.144 -0.441,-2.253 -0.072,0.009 -0.145,0.018 -0.199,0.018 -0.054,0.009 -0.108,0.009 -0.153,0.009 H 47.474 C 47.429,-1.965 47.357,-1.974 47.249,-1.983 M 45.14,-2.064 v 0.288 c 0.261,0.073 0.504,0.253 0.712,0.55 0.27,0.388 0.405,0.857 0.405,1.407 0,0.297 -0.081,0.54 -0.243,0.72 -0.153,0.181 -0.37,0.271 -0.64,0.271 h -0.018 c -0.072,0 -0.144,-0.009 -0.216,-0.027 v 0.288 h 0.144 c 0.504,0 0.901,-0.126 1.18,-0.387 0.289,-0.262 0.433,-0.622 0.433,-1.082 0,-0.568 -0.189,-1.045 -0.577,-1.442 -0.324,-0.343 -0.721,-0.532 -1.18,-0.586 m 6.065,3.497 V 1.154 C 51.043,1.109 50.89,1.019 50.755,0.865 50.575,0.658 50.439,0.37 50.358,0.009 c 0.063,0 0.154,0 0.271,-0.009 h 0.541 0.035 v -0.27 h -0.252 c -0.252,-0.009 -0.469,-0.009 -0.658,-0.009 -0.009,-0.081 -0.018,-0.154 -0.018,-0.226 -0.009,-0.072 -0.009,-0.144 -0.009,-0.216 0,-0.324 0.081,-0.577 0.244,-0.757 0.162,-0.171 0.387,-0.261 0.693,-0.261 v -0.343 h -0.117 c -0.459,0 -0.82,0.135 -1.09,0.397 -0.271,0.27 -0.406,0.64 -0.406,1.09 0,0.577 0.18,1.064 0.523,1.46 0.297,0.334 0.667,0.523 1.09,0.568 m 6.157,-3.416 c 0.288,1.073 0.531,2.019 0.721,2.857 0.189,0.839 0.315,1.47 0.369,1.911 0.082,-0.018 0.154,-0.027 0.208,-0.027 0.045,-0.009 0.09,-0.009 0.126,-0.009 0.036,0 0.081,0 0.135,0.009 0.045,0 0.117,0.009 0.198,0.027 0.045,-0.297 0.19,-0.892 0.433,-1.766 0.027,-0.108 0.054,-0.199 0.063,-0.262 l 0.487,-1.775 1.253,1.937 c 0.036,0.055 0.09,0.136 0.162,0.253 0.423,0.658 0.757,1.19 1,1.613 0.09,-0.018 0.154,-0.027 0.199,-0.027 0.045,-0.009 0.081,-0.009 0.099,-0.009 0.036,0 0.081,0 0.135,0.009 0.045,0 0.117,0.009 0.216,0.027 -0.225,-0.919 -0.414,-1.794 -0.568,-2.614 -0.153,-0.82 -0.261,-1.541 -0.324,-2.154 -0.099,0.009 -0.18,0.018 -0.234,0.027 h -0.154 -0.162 c -0.063,-0.009 -0.135,-0.018 -0.243,-0.027 0.099,0.334 0.18,0.658 0.261,0.974 0.072,0.315 0.144,0.603 0.198,0.874 l 0.415,2.037 -1.577,-2.506 -0.045,-0.063 c -0.307,-0.477 -0.559,-0.91 -0.784,-1.316 h -0.235 c -0.189,0.712 -0.378,1.388 -0.55,2.028 -0.18,0.64 -0.351,1.253 -0.513,1.848 L 58.335,0.37 c -0.117,-0.532 -0.198,-0.983 -0.261,-1.325 -0.054,-0.352 -0.099,-0.694 -0.135,-1.028 -0.082,0.009 -0.145,0.018 -0.181,0.027 h -0.099 c -0.027,0 -0.072,0 -0.117,-0.009 -0.054,0 -0.108,-0.009 -0.18,-0.018 m -4.345,0.91 h 0.117 c 0.037,-0.225 0.127,-0.396 0.271,-0.531 0.135,-0.127 0.315,-0.19 0.532,-0.19 0.216,0 0.387,0.063 0.513,0.181 0.126,0.126 0.19,0.279 0.19,0.469 0,0.234 -0.207,0.45 -0.64,0.63 -0.027,0.009 -0.045,0.018 -0.063,0.028 -0.271,0.117 -0.46,0.243 -0.568,0.369 -0.108,0.135 -0.162,0.306 -0.162,0.505 0,0.306 0.108,0.559 0.324,0.757 0.216,0.198 0.496,0.297 0.838,0.297 0.19,0 0.361,-0.018 0.514,-0.063 C 55.036,1.334 55.189,1.271 55.325,1.19 55.289,1.109 55.252,1.019 55.217,0.928 55.189,0.839 55.163,0.73 55.144,0.622 h -0.099 c -0.054,0.189 -0.144,0.325 -0.261,0.415 -0.108,0.09 -0.252,0.135 -0.433,0.135 -0.18,0 -0.324,-0.054 -0.442,-0.171 -0.117,-0.109 -0.171,-0.244 -0.171,-0.406 0,-0.225 0.208,-0.424 0.613,-0.586 0.027,-0.009 0.045,-0.018 0.063,-0.027 0.298,-0.126 0.496,-0.243 0.604,-0.379 0.117,-0.135 0.171,-0.297 0.171,-0.513 0,-0.343 -0.126,-0.622 -0.369,-0.838 -0.244,-0.226 -0.559,-0.334 -0.956,-0.334 -0.207,0 -0.396,0.036 -0.576,0.099 -0.19,0.063 -0.352,0.153 -0.487,0.271 0.027,0.117 0.063,0.234 0.099,0.342 0.036,0.108 0.072,0.207 0.117,0.297 M 51.205,-0.27 V 0 h 0.568 c 0.118,0.009 0.199,0.009 0.262,0.009 0.009,0.081 0.018,0.144 0.018,0.189 0.009,0.054 0.009,0.1 0.009,0.145 0,0.261 -0.063,0.459 -0.171,0.613 -0.118,0.144 -0.28,0.216 -0.487,0.216 -0.063,0 -0.135,0 -0.199,-0.018 v 0.279 c 0.073,0.009 0.154,0.018 0.226,0.018 0.387,0 0.694,-0.126 0.91,-0.36 0.226,-0.243 0.334,-0.577 0.334,-1.001 0,-0.027 0,-0.072 -0.009,-0.135 0,-0.063 -0.009,-0.144 -0.018,-0.234 h -0.154 c -0.522,0.009 -0.883,0.009 -1.099,0.009 z m 0,-1.812 v 0.343 c 0.19,0 0.37,0.045 0.541,0.126 0.172,0.081 0.352,0.225 0.541,0.405 l 0.09,-0.063 c -0.036,-0.072 -0.063,-0.144 -0.099,-0.216 -0.027,-0.081 -0.054,-0.162 -0.072,-0.244 -0.198,-0.117 -0.388,-0.207 -0.568,-0.27 -0.135,-0.045 -0.279,-0.072 -0.433,-0.081"
             style="fill:#fbc707;fill-opacity:1;fill-rule:nonzero;stroke:none"
             id="path164"
             inkscape:connector-curvature="0" /></g><g
           id="g166"
           transform="translate(112.2478,87.0994)"><path
             d="m 0,0 c -0.279,-0.063 -0.523,-0.243 -0.73,-0.55 -0.261,-0.378 -0.388,-0.838 -0.388,-1.379 0,-0.324 0.073,-0.577 0.226,-0.757 0.144,-0.171 0.351,-0.262 0.631,-0.262 0.09,0 0.18,0.009 0.261,0.028 v -0.289 c -0.072,0 -0.144,-0.009 -0.216,-0.009 -0.469,0 -0.848,0.136 -1.127,0.406 -0.279,0.261 -0.414,0.631 -0.414,1.081 0,0.559 0.18,1.037 0.549,1.434 0.334,0.351 0.73,0.549 1.208,0.586 z M 3.93,0.225 V -0.108 C 3.678,-0.18 3.452,-0.352 3.272,-0.622 c -0.243,-0.36 -0.361,-0.82 -0.361,-1.37 0,-0.289 0.063,-0.514 0.208,-0.667 0.135,-0.162 0.333,-0.243 0.586,-0.243 0.081,0 0.153,0.009 0.225,0.027 V -3.209 C 3.876,-3.218 3.831,-3.218 3.777,-3.218 3.561,-3.218 3.362,-3.182 3.182,-3.101 3.011,-3.019 2.83,-2.902 2.659,-2.731 2.578,-2.785 2.515,-2.839 2.443,-2.911 2.38,-2.974 2.316,-3.047 2.253,-3.128 H 2.019 C 2.136,-2.74 2.29,-2.091 2.479,-1.19 2.668,-0.289 2.866,0.811 3.092,2.1 3.164,2.091 3.227,2.082 3.281,2.073 3.344,2.064 3.38,2.064 3.416,2.064 c 0.045,0 0.099,0 0.153,0.009 C 3.632,2.082 3.705,2.091 3.777,2.1 3.632,1.64 3.488,1.055 3.344,0.333 3.317,0.207 3.299,0.117 3.281,0.054 L 3.218,-0.27 C 3.389,-0.081 3.561,0.063 3.75,0.153 3.813,0.18 3.867,0.207 3.93,0.225 M 0.216,0.027 C 0.144,0.027 0.072,0.018 0,0 v 0.289 h 0.144 c 0.505,0 0.902,-0.127 1.181,-0.388 0.289,-0.262 0.433,-0.622 0.433,-1.082 0,-0.568 -0.19,-1.045 -0.577,-1.442 C 0.856,-2.965 0.46,-3.155 0,-3.209 v 0.289 c 0.261,0.072 0.505,0.252 0.712,0.549 0.27,0.388 0.406,0.857 0.406,1.407 0,0.297 -0.081,0.54 -0.244,0.721 -0.153,0.18 -0.369,0.27 -0.64,0.27 z m 9.266,-3.155 c 0.189,0.721 0.343,1.371 0.442,1.947 0.108,0.586 0.162,1.046 0.171,1.397 0.072,-0.009 0.135,-0.018 0.198,-0.027 h 0.163 0.18 c 0.063,0.009 0.126,0.018 0.198,0.027 -0.189,-0.667 -0.333,-1.28 -0.432,-1.847 -0.109,-0.568 -0.172,-1.073 -0.19,-1.497 -0.099,0.009 -0.18,0.018 -0.234,0.027 H 9.843 9.717 C 9.662,-3.11 9.581,-3.119 9.482,-3.128 m 0.802,4.561 c 0,0.108 0.037,0.19 0.1,0.253 0.063,0.063 0.144,0.09 0.252,0.09 0.108,0 0.189,-0.027 0.243,-0.09 0.063,-0.055 0.091,-0.145 0.091,-0.253 0,-0.09 -0.028,-0.171 -0.1,-0.243 -0.063,-0.063 -0.144,-0.099 -0.243,-0.099 -0.099,0 -0.18,0.036 -0.243,0.099 -0.063,0.063 -0.1,0.144 -0.1,0.243 M 7.743,-3.128 c 0.252,0.983 0.459,1.911 0.622,2.795 C 8.527,0.55 8.653,1.361 8.725,2.1 H 8.743 C 8.914,2.082 9.022,2.073 9.059,2.073 H 9.203 C 9.257,2.082 9.329,2.091 9.428,2.1 9.212,1.181 9.013,0.279 8.851,-0.604 8.68,-1.487 8.545,-2.325 8.446,-3.128 8.355,-3.119 8.283,-3.11 8.238,-3.101 H 8.094 7.968 C 7.923,-3.11 7.842,-3.119 7.743,-3.128 m -1.704,0 c 0.189,0.721 0.343,1.371 0.442,1.947 0.108,0.586 0.162,1.046 0.18,1.397 L 6.85,0.189 H 7.021 7.193 C 7.256,0.198 7.319,0.207 7.391,0.216 7.202,-0.451 7.058,-1.064 6.958,-1.631 6.85,-2.199 6.796,-2.704 6.769,-3.128 6.67,-3.119 6.589,-3.11 6.535,-3.101 H 6.4 6.273 C 6.219,-3.11 6.138,-3.119 6.039,-3.128 m 0.802,4.561 c 0,0.108 0.037,0.19 0.1,0.253 0.063,0.063 0.153,0.09 0.252,0.09 0.108,0 0.189,-0.027 0.252,-0.09 C 7.499,1.631 7.526,1.541 7.526,1.433 7.526,1.343 7.499,1.262 7.427,1.19 7.364,1.127 7.283,1.091 7.184,1.091 7.085,1.091 7.004,1.127 6.941,1.19 6.878,1.253 6.841,1.334 6.841,1.433 M 3.93,-3.209 v 0.334 c 0.252,0.063 0.478,0.243 0.658,0.523 0.243,0.36 0.369,0.811 0.369,1.333 0,0.307 -0.071,0.541 -0.198,0.704 -0.135,0.162 -0.315,0.243 -0.559,0.243 -0.09,0 -0.18,-0.018 -0.27,-0.036 v 0.333 c 0.144,0.045 0.288,0.064 0.451,0.064 0.378,0 0.685,-0.118 0.901,-0.37 C 5.507,-0.324 5.616,-0.667 5.616,-1.1 5.616,-1.704 5.435,-2.208 5.084,-2.614 4.777,-2.974 4.39,-3.173 3.93,-3.209 m 8.509,1.965 v -0.297 c -0.235,-0.073 -0.415,-0.153 -0.532,-0.262 -0.153,-0.135 -0.235,-0.306 -0.235,-0.513 0,-0.154 0.055,-0.28 0.145,-0.37 0.09,-0.099 0.207,-0.144 0.36,-0.144 0.09,0 0.181,0.009 0.262,0.045 V -3.101 C 12.285,-3.164 12.132,-3.2 11.952,-3.2 c -0.27,0 -0.478,0.072 -0.631,0.217 -0.162,0.153 -0.234,0.351 -0.234,0.594 0,0.325 0.099,0.568 0.315,0.749 0.198,0.162 0.541,0.297 1.037,0.396 m 0,1.514 v -0.279 c -0.081,-0.027 -0.154,-0.063 -0.226,-0.099 -0.162,-0.099 -0.288,-0.235 -0.378,-0.406 l -0.118,0.018 c 0.019,0.072 0.028,0.135 0.037,0.199 0.018,0.063 0.018,0.126 0.018,0.189 v 0.054 C 11.763,-0.027 11.763,0 11.763,0.009 c 0.171,0.108 0.342,0.18 0.522,0.225 0.045,0.018 0.099,0.027 0.154,0.036 m 0,0.478 V 0.676 h -0.072 z m 4.344,-3.876 c 0.189,0.721 0.343,1.371 0.442,1.947 0.108,0.586 0.162,1.046 0.18,1.397 l 0.189,-0.027 h 0.172 0.171 c 0.063,0.009 0.135,0.018 0.198,0.027 -0.189,-0.667 -0.324,-1.28 -0.433,-1.847 -0.099,-0.568 -0.162,-1.073 -0.189,-1.497 -0.099,0.009 -0.18,0.018 -0.234,0.027 H 17.144 17.018 C 16.963,-3.11 16.882,-3.119 16.783,-3.128 m 0.802,4.561 c 0,0.108 0.036,0.19 0.099,0.253 0.063,0.063 0.154,0.09 0.253,0.09 0.108,0 0.189,-0.027 0.252,-0.09 0.054,-0.055 0.081,-0.145 0.081,-0.253 0,-0.09 -0.027,-0.171 -0.099,-0.243 -0.063,-0.063 -0.144,-0.099 -0.243,-0.099 -0.099,0 -0.181,0.036 -0.244,0.099 -0.063,0.063 -0.099,0.144 -0.099,0.243 m -3.127,-4.561 c 0.162,0.64 0.297,1.253 0.405,1.83 0.1,0.577 0.163,1.082 0.199,1.514 0.063,-0.009 0.117,-0.018 0.171,-0.027 h 0.135 0.153 c 0.054,0.009 0.108,0.018 0.171,0.027 C 15.657,0.108 15.629,0 15.602,-0.108 c -0.027,-0.108 -0.045,-0.225 -0.054,-0.343 0.153,0.226 0.316,0.415 0.496,0.541 0.171,0.126 0.343,0.189 0.505,0.189 0.027,0 0.063,0 0.09,-0.009 0.027,0 0.063,-0.009 0.099,-0.018 -0.027,-0.099 -0.054,-0.198 -0.072,-0.288 -0.009,-0.099 -0.027,-0.198 -0.027,-0.288 -0.081,0.009 -0.144,0.027 -0.198,0.035 -0.054,0 -0.099,0.009 -0.136,0.009 -0.324,0 -0.567,-0.198 -0.739,-0.594 -0.171,-0.397 -0.315,-1.145 -0.432,-2.254 -0.082,0.009 -0.145,0.018 -0.208,0.018 -0.054,0.009 -0.099,0.009 -0.144,0.009 H 14.674 C 14.638,-3.11 14.557,-3.119 14.458,-3.128 m -2.019,3.804 v 0.072 l 0.928,0.929 c 0.072,0.072 0.135,0.126 0.207,0.162 0.064,0.036 0.118,0.054 0.172,0.054 0.081,0 0.153,-0.018 0.207,-0.072 0.054,-0.054 0.072,-0.118 0.072,-0.198 0,-0.055 -0.018,-0.1 -0.054,-0.145 C 13.935,1.433 13.863,1.379 13.764,1.316 l -1.091,-0.64 z m 0,-3.777 v 0.316 c 0.108,0.036 0.207,0.09 0.297,0.162 0.18,0.144 0.289,0.307 0.325,0.487 l 0.144,0.775 -0.577,-0.135 c -0.063,-0.009 -0.126,-0.027 -0.189,-0.045 v 0.297 c 0.027,0.009 0.045,0.009 0.072,0.018 l 0.586,0.108 c 0.09,0.018 0.162,0.082 0.198,0.171 0.045,0.091 0.072,0.235 0.072,0.415 0,0.171 -0.054,0.316 -0.162,0.415 -0.099,0.099 -0.253,0.144 -0.433,0.144 -0.117,0 -0.225,-0.009 -0.333,-0.036 V 0.27 c 0.126,0.028 0.261,0.036 0.405,0.036 0.343,0 0.604,-0.072 0.794,-0.216 0.18,-0.144 0.27,-0.36 0.27,-0.631 0,-0.081 -0.009,-0.18 -0.018,-0.297 -0.018,-0.118 -0.036,-0.244 -0.063,-0.379 l -0.235,-1.181 c -0.018,-0.054 -0.027,-0.099 -0.027,-0.144 -0.009,-0.045 -0.009,-0.09 -0.009,-0.126 0,-0.072 0.018,-0.117 0.054,-0.153 0.036,-0.036 0.091,-0.054 0.154,-0.054 0.027,0 0.054,0 0.09,0.009 0.027,0 0.072,0.018 0.135,0.036 l 0.09,-0.181 c -0.108,-0.063 -0.216,-0.108 -0.315,-0.135 -0.1,-0.036 -0.199,-0.045 -0.298,-0.045 -0.144,0 -0.261,0.045 -0.351,0.135 -0.081,0.091 -0.127,0.217 -0.136,0.388 -0.153,-0.18 -0.315,-0.315 -0.486,-0.406 -0.018,-0.008 -0.036,-0.017 -0.054,-0.027 m 7.823,3.39 V 0 c -0.279,-0.063 -0.523,-0.243 -0.73,-0.55 -0.261,-0.378 -0.387,-0.838 -0.387,-1.379 0,-0.324 0.072,-0.577 0.216,-0.757 0.153,-0.171 0.361,-0.262 0.64,-0.262 0.09,0 0.171,0.009 0.261,0.028 v -0.289 c -0.072,0 -0.144,-0.009 -0.225,-0.009 -0.469,0 -0.838,0.136 -1.118,0.406 -0.279,0.261 -0.414,0.631 -0.414,1.081 0,0.559 0.18,1.037 0.541,1.434 0.333,0.351 0.739,0.549 1.216,0.586 m 2.173,-2.506 h 0.117 c 0.036,-0.226 0.126,-0.397 0.27,-0.532 0.135,-0.126 0.316,-0.19 0.532,-0.19 0.216,0 0.388,0.064 0.514,0.181 0.126,0.126 0.198,0.279 0.198,0.469 0,0.234 -0.216,0.45 -0.649,0.631 -0.027,0.009 -0.045,0.018 -0.063,0.027 -0.27,0.117 -0.451,0.243 -0.568,0.369 -0.108,0.135 -0.162,0.306 -0.162,0.505 0,0.306 0.108,0.559 0.324,0.757 0.226,0.198 0.505,0.298 0.839,0.298 0.189,0 0.36,-0.019 0.513,-0.064 0.154,-0.045 0.307,-0.108 0.451,-0.189 -0.045,-0.081 -0.081,-0.171 -0.117,-0.261 -0.027,-0.09 -0.054,-0.199 -0.072,-0.307 h -0.09 c -0.063,0.19 -0.154,0.325 -0.271,0.415 -0.108,0.09 -0.252,0.135 -0.432,0.135 -0.181,0 -0.325,-0.054 -0.442,-0.171 -0.117,-0.108 -0.171,-0.244 -0.171,-0.406 0,-0.225 0.207,-0.423 0.613,-0.586 0.027,-0.009 0.045,-0.018 0.063,-0.027 0.297,-0.126 0.495,-0.243 0.604,-0.378 0.117,-0.136 0.171,-0.298 0.171,-0.514 0,-0.343 -0.117,-0.622 -0.361,-0.838 -0.243,-0.226 -0.568,-0.334 -0.964,-0.334 -0.198,0 -0.397,0.036 -0.577,0.099 -0.189,0.063 -0.352,0.154 -0.487,0.271 0.027,0.117 0.063,0.234 0.1,0.342 0.035,0.108 0.071,0.208 0.117,0.298 m -2.173,-0.992 v 0.289 c 0.262,0.072 0.496,0.252 0.703,0.549 0.28,0.388 0.415,0.857 0.415,1.407 0,0.297 -0.081,0.54 -0.243,0.721 -0.154,0.18 -0.37,0.27 -0.64,0.27 H 20.479 C 20.406,0.027 20.334,0.018 20.262,0 v 0.289 h 0.136 c 0.513,0 0.91,-0.127 1.189,-0.388 0.289,-0.262 0.433,-0.622 0.433,-1.082 0,-0.568 -0.198,-1.045 -0.577,-1.442 -0.324,-0.342 -0.721,-0.532 -1.181,-0.586"
             style="fill:#fbc707;fill-opacity:1;fill-rule:nonzero;stroke:none"
             id="path168"
             inkscape:connector-curvature="0" /></g></g></g><g
       id="g170"
       inkscape:export-filename="G:\Users\suitedoalex\sites\cvm-logo-6.png"
       inkscape:export-xdpi="21.356455"
       inkscape:export-ydpi="21.356455"><g
         id="g172"
         clip-path="url(#clipPath176)"><g
           id="g178"><g
             id="g180"
             clip-path="url(#clipPath184)"><g
               id="g186"><g
                 id="g188"><g
                   id="g194"><g
                     id="g196"><g
                       id="g198"
                       clip-path="url(#clipPath202)"><path
                         d="m 42.52,80.997 h 94.488 V 80.015 H 42.52 Z"
                         style="fill:url(#linearGradient208);stroke:none"
                         id="path210"
                         inkscape:connector-curvature="0" /></g></g></g></g></g></g></g></g></g><g
       id="g212"
       transform="matrix(25.523899,0,0,25.523899,-758.00377,-1151.604)"
       inkscape:export-filename="G:\Users\suitedoalex\sites\cvm-logo-6.png"
       inkscape:export-xdpi="21.356455"
       inkscape:export-ydpi="21.356455"><g
         id="g214"
         clip-path="url(#clipPath218)"><g
           id="g220"
           transform="translate(43.7275,77.3108)"><path
             d="m 0,0 h 0.667 v -0.433 c -0.045,0.009 -0.09,0.009 -0.144,0.009 H 0.397 l -0.28,-1.784 h 0.262 c 0.108,0 0.207,0.018 0.288,0.036 V -2.605 C 0.523,-2.623 0.361,-2.641 0.198,-2.641 H 0.054 L -0.324,-5.066 H -0.793 Z M 1.713,-5.002 V -5.066 H 1.704 Z M 0.667,0 c 0.406,0 0.676,-0.081 0.829,-0.234 0.118,-0.118 0.19,-0.28 0.217,-0.487 V -1.073 C 1.704,-1.127 1.704,-1.19 1.695,-1.253 1.64,-1.677 1.532,-1.992 1.361,-2.19 1.19,-2.398 1.01,-2.524 0.82,-2.569 0.766,-2.578 0.721,-2.596 0.667,-2.605 v 0.433 c 0.036,0.009 0.063,0.018 0.099,0.036 0.108,0.036 0.198,0.135 0.28,0.279 0.081,0.153 0.144,0.37 0.171,0.676 v 0.207 c 0,0.199 -0.045,0.343 -0.144,0.424 -0.072,0.072 -0.217,0.108 -0.406,0.117 z m 1.046,-5.066 v 0.064 l 0.522,3.389 h 0.442 l -0.072,-0.46 h 0.018 c 0.072,0.135 0.171,0.261 0.288,0.361 0.118,0.099 0.235,0.144 0.361,0.144 L 3.2,-2.073 H 3.065 c -0.145,0 -0.271,-0.063 -0.37,-0.18 C 2.596,-2.362 2.524,-2.587 2.47,-2.902 L 2.127,-5.066 Z m 2.731,3.453 V -2.055 C 4.417,-2.064 4.399,-2.082 4.372,-2.1 4.282,-2.181 4.191,-2.316 4.119,-2.497 4.038,-2.677 3.975,-2.911 3.93,-3.2 3.885,-3.533 3.858,-3.804 3.849,-4.029 3.858,-4.245 3.894,-4.408 3.948,-4.534 4.011,-4.651 4.11,-4.705 4.245,-4.705 c 0.072,0 0.136,0.018 0.199,0.054 V -5.075 C 4.354,-5.102 4.263,-5.12 4.164,-5.12 c -0.505,0 -0.766,0.361 -0.784,1.091 0.018,0.162 0.027,0.27 0.027,0.325 0,0.063 0.027,0.243 0.081,0.54 0.036,0.226 0.099,0.451 0.181,0.685 0.081,0.244 0.216,0.451 0.405,0.631 0.108,0.108 0.226,0.19 0.37,0.235 m -2.731,0.892 c 0.009,-0.045 0.009,-0.099 0.009,-0.162 0,-0.054 0,-0.118 -0.009,-0.19 z M 7.607,-1.613 7.553,-2.019 H 6.976 L 6.499,-5.066 H 6.057 l 0.496,3.047 h -0.37 l 0.054,0.406 H 6.598 L 6.76,-0.676 H 7.184 L 7.049,-1.613 Z M 4.444,-5.075 v 0.424 c 0.135,0.072 0.243,0.225 0.324,0.46 0.117,0.333 0.199,0.667 0.235,0.991 0.017,0.243 0.027,0.415 0.027,0.514 0,0.478 -0.127,0.721 -0.379,0.721 -0.072,-0.009 -0.144,-0.036 -0.207,-0.09 v 0.442 c 0.099,0.027 0.216,0.045 0.342,0.045 0.469,-0.018 0.703,-0.37 0.703,-1.055 0,-0.387 -0.036,-0.73 -0.108,-1.009 C 5.336,-3.831 5.282,-4.002 5.228,-4.173 5.174,-4.335 5.093,-4.489 5.003,-4.633 4.912,-4.777 4.795,-4.894 4.66,-4.984 4.588,-5.021 4.516,-5.057 4.444,-5.075 m 4.245,3.471 V -2.01 C 8.599,-2.064 8.509,-2.163 8.428,-2.307 8.311,-2.524 8.229,-2.776 8.175,-3.056 H 8.689 V -3.425 H 8.103 C 8.085,-3.578 8.067,-3.777 8.058,-4.02 c 0.009,-0.451 0.135,-0.676 0.361,-0.685 0.108,0 0.198,0.027 0.27,0.09 v -0.46 C 8.608,-5.102 8.518,-5.12 8.419,-5.12 c -0.523,0 -0.785,0.361 -0.794,1.091 0.009,0.27 0.028,0.514 0.063,0.739 0.037,0.253 0.1,0.505 0.199,0.766 0.099,0.262 0.243,0.487 0.414,0.676 0.118,0.126 0.244,0.207 0.388,0.244 m 0,-1.821 v 0.369 h 0.478 c 0.027,0.19 0.045,0.352 0.045,0.496 0,0.397 -0.117,0.595 -0.361,0.595 C 8.797,-1.974 8.743,-1.983 8.689,-2.01 v 0.406 c 0.081,0.027 0.162,0.036 0.243,0.036 0.469,0 0.703,-0.361 0.703,-1.073 0,-0.243 -0.018,-0.505 -0.072,-0.784 z m 0,-1.65 v 0.46 c 0.162,0.117 0.27,0.361 0.324,0.721 h 0.46 C 9.41,-4.218 9.293,-4.498 9.113,-4.75 8.995,-4.912 8.86,-5.021 8.689,-5.075 m 2.47,-0.766 v -0.513 c -0.135,-0.063 -0.289,-0.091 -0.478,-0.091 -0.496,0 -0.748,0.235 -0.766,0.712 0.018,0.163 0.036,0.298 0.054,0.379 h 0.433 c 0,-0.054 -0.019,-0.144 -0.036,-0.262 0.008,-0.27 0.144,-0.405 0.387,-0.405 0.162,0 0.28,0.045 0.361,0.126 0.018,0.018 0.027,0.036 0.045,0.054 m 0,4.255 v -0.406 c -0.027,-0.018 -0.054,-0.036 -0.072,-0.063 -0.09,-0.099 -0.163,-0.207 -0.217,-0.352 -0.054,-0.135 -0.099,-0.279 -0.126,-0.441 -0.036,-0.162 -0.063,-0.298 -0.09,-0.415 -0.054,-0.342 -0.09,-0.595 -0.09,-0.784 0.009,-0.442 0.153,-0.658 0.414,-0.658 0.072,0 0.127,0.009 0.181,0.036 v -0.324 c -0.099,-0.046 -0.217,-0.073 -0.334,-0.073 -0.261,0 -0.442,0.091 -0.541,0.271 -0.108,0.171 -0.162,0.405 -0.162,0.703 0,0.117 0.009,0.252 0.036,0.424 0.018,0.171 0.027,0.288 0.036,0.351 0.072,0.451 0.189,0.847 0.361,1.208 0.135,0.297 0.342,0.468 0.604,0.523 m 0,-4.768 v 0.513 c 0.063,0.09 0.099,0.225 0.135,0.406 l 0.09,0.604 C 11.312,-4.903 11.24,-4.957 11.159,-4.993 v 0.324 c 0.063,0.027 0.117,0.072 0.162,0.135 0.09,0.108 0.153,0.262 0.198,0.433 0.054,0.18 0.09,0.397 0.126,0.649 0.072,0.451 0.109,0.748 0.109,0.901 0,0.406 -0.109,0.613 -0.343,0.631 -0.099,0 -0.18,-0.018 -0.252,-0.072 v 0.406 c 0.054,0.009 0.108,0.018 0.162,0.018 0.261,0 0.442,-0.09 0.532,-0.28 h 0.018 l 0.036,0.235 h 0.442 l -0.595,-3.741 c -0.063,-0.379 -0.172,-0.658 -0.343,-0.829 -0.072,-0.072 -0.153,-0.135 -0.252,-0.171 m 2.641,4.75 V -2.01 C 13.7,-2.064 13.61,-2.163 13.538,-2.307 13.412,-2.524 13.331,-2.776 13.277,-3.056 H 13.8 v -0.369 h -0.586 c -0.018,-0.153 -0.036,-0.352 -0.054,-0.595 0.018,-0.451 0.135,-0.676 0.369,-0.685 0.099,0 0.189,0.027 0.271,0.09 v -0.46 c -0.09,-0.027 -0.181,-0.045 -0.271,-0.045 -0.523,0 -0.793,0.361 -0.802,1.091 0.009,0.27 0.027,0.514 0.063,0.739 0.036,0.253 0.108,0.505 0.207,0.766 0.1,0.262 0.235,0.487 0.406,0.676 0.117,0.126 0.252,0.207 0.397,0.244 m 3.488,-1.019 -0.37,-2.443 h -0.45 l 0.396,2.506 c 0.018,0.126 0.027,0.216 0.027,0.28 0,0.243 -0.117,0.36 -0.333,0.36 -0.181,-0.009 -0.316,-0.081 -0.415,-0.216 -0.099,-0.135 -0.171,-0.343 -0.216,-0.631 l -0.37,-2.299 h -0.432 l 0.541,3.453 h 0.441 l -0.045,-0.28 c 0.234,0.216 0.478,0.316 0.721,0.316 0.171,0 0.307,-0.055 0.406,-0.163 0.09,-0.108 0.144,-0.252 0.144,-0.441 0,-0.045 -0.009,-0.09 -0.009,-0.126 -0.009,-0.046 -0.009,-0.091 -0.018,-0.136 0,-0.054 -0.009,-0.117 -0.018,-0.18 M 13.8,-3.425 v 0.369 h 0.477 c 0.027,0.19 0.036,0.352 0.036,0.496 0,0.397 -0.117,0.595 -0.351,0.595 C 13.899,-1.974 13.845,-1.983 13.8,-2.01 v 0.406 c 0.072,0.027 0.153,0.036 0.243,0.036 0.469,0 0.703,-0.361 0.703,-1.073 0,-0.243 -0.027,-0.505 -0.072,-0.784 z m 0,-1.65 v 0.46 c 0.153,0.117 0.261,0.361 0.315,0.721 h 0.46 C 14.512,-4.218 14.394,-4.498 14.214,-4.75 14.097,-4.912 13.962,-5.021 13.8,-5.075 m 5.038,3.489 v -0.415 c -0.117,-0.081 -0.207,-0.216 -0.279,-0.397 -0.09,-0.261 -0.171,-0.612 -0.235,-1.054 0,-0.027 -0.018,-0.117 -0.036,-0.28 -0.027,-0.162 -0.036,-0.306 -0.045,-0.414 0.009,-0.199 0.045,-0.352 0.099,-0.46 0.063,-0.099 0.172,-0.153 0.325,-0.153 0.063,0 0.117,0.018 0.171,0.045 v -0.279 c -0.126,-0.082 -0.261,-0.127 -0.396,-0.127 -0.226,0 -0.388,0.081 -0.487,0.244 -0.09,0.162 -0.144,0.387 -0.153,0.676 0.009,0.243 0.063,0.649 0.153,1.226 0.045,0.243 0.108,0.477 0.189,0.684 0.081,0.208 0.198,0.379 0.343,0.523 0.099,0.09 0.216,0.154 0.351,0.181 m 0,-3.407 v 0.279 c 0.054,0.036 0.108,0.081 0.153,0.144 0.081,0.126 0.145,0.262 0.19,0.424 0.045,0.162 0.081,0.342 0.117,0.531 0.027,0.19 0.054,0.361 0.072,0.514 0.036,0.271 0.054,0.451 0.054,0.541 0,0.424 -0.117,0.631 -0.352,0.631 h -0.081 c -0.063,-0.018 -0.108,-0.036 -0.153,-0.072 v 0.415 c 0.054,0.009 0.126,0.018 0.19,0.018 0.234,0 0.396,-0.09 0.495,-0.28 l 0.343,2.163 h 0.45 l -0.847,-5.381 h -0.441 l 0.044,0.262 H 19.054 C 18.982,-4.885 18.91,-4.949 18.838,-4.993 m 2.596,3.38 V -2.055 C 21.407,-2.064 21.389,-2.082 21.362,-2.1 21.272,-2.181 21.191,-2.316 21.11,-2.497 21.028,-2.677 20.965,-2.911 20.92,-3.2 c -0.036,-0.333 -0.063,-0.604 -0.081,-0.829 0.009,-0.216 0.045,-0.379 0.108,-0.505 0.054,-0.117 0.154,-0.171 0.289,-0.171 0.072,0 0.135,0.018 0.198,0.054 v -0.424 c -0.081,-0.027 -0.18,-0.045 -0.279,-0.045 -0.505,0 -0.766,0.361 -0.784,1.091 0.018,0.162 0.026,0.27 0.026,0.325 0,0.063 0.037,0.243 0.091,0.54 0.027,0.226 0.09,0.451 0.171,0.685 0.09,0.244 0.225,0.451 0.406,0.631 0.108,0.108 0.225,0.19 0.369,0.235 m 0,-3.462 v 0.424 c 0.135,0.072 0.243,0.225 0.324,0.46 0.118,0.333 0.199,0.667 0.244,0.991 0.018,0.243 0.027,0.415 0.027,0.514 0,0.478 -0.135,0.721 -0.388,0.721 -0.072,-0.009 -0.135,-0.036 -0.207,-0.09 v 0.442 c 0.108,0.027 0.216,0.045 0.343,0.045 0.468,-0.018 0.703,-0.37 0.703,-1.055 0,-0.387 -0.036,-0.73 -0.109,-1.009 -0.045,-0.199 -0.09,-0.37 -0.153,-0.541 -0.054,-0.162 -0.126,-0.316 -0.225,-0.46 -0.09,-0.144 -0.207,-0.261 -0.343,-0.351 -0.072,-0.037 -0.135,-0.073 -0.216,-0.091 m 4.074,-1.252 v -0.046 h -0.009 z m 0,4.741 v -0.415 c -0.027,-0.027 -0.054,-0.054 -0.081,-0.081 -0.09,-0.108 -0.171,-0.243 -0.225,-0.406 -0.054,-0.162 -0.09,-0.324 -0.118,-0.495 -0.036,-0.172 -0.054,-0.298 -0.063,-0.379 -0.054,-0.279 -0.081,-0.55 -0.099,-0.793 0.009,-0.226 0.036,-0.37 0.099,-0.46 0.055,-0.081 0.145,-0.135 0.244,-0.153 0.09,0 0.171,0.027 0.243,0.081 v -0.315 c -0.108,-0.064 -0.234,-0.109 -0.36,-0.118 -0.244,0 -0.415,0.081 -0.505,0.244 -0.099,0.153 -0.153,0.378 -0.162,0.649 0.027,0.288 0.036,0.459 0.045,0.495 0.054,0.433 0.117,0.794 0.189,1.091 0.072,0.297 0.189,0.55 0.343,0.748 0.117,0.162 0.27,0.261 0.45,0.307 m 1.965,-0.027 h 0.451 l -0.343,-2.173 c -0.009,-0.054 -0.018,-0.135 -0.036,-0.243 -0.018,-0.099 -0.027,-0.189 -0.036,-0.253 0.018,-0.288 0.144,-0.423 0.37,-0.423 0.153,0 0.27,0.045 0.351,0.135 0.081,0.099 0.135,0.208 0.171,0.334 0.037,0.135 0.073,0.315 0.1,0.549 l 0.333,2.074 h 0.451 l -0.397,-2.479 c -0.108,-0.685 -0.46,-1.028 -1.063,-1.028 -0.496,0 -0.757,0.244 -0.767,0.73 0,0.028 0.01,0.073 0.01,0.127 0.008,0.063 0.008,0.108 0.017,0.135 z m -1.965,-4.76 v 0.046 l 0.243,1.523 h -0.018 c -0.072,-0.081 -0.144,-0.145 -0.225,-0.198 v 0.315 c 0.243,0.153 0.406,0.568 0.487,1.244 0.072,0.451 0.099,0.748 0.099,0.91 0,0.415 -0.108,0.613 -0.334,0.613 -0.09,0 -0.18,-0.027 -0.252,-0.081 v 0.415 c 0.054,0.009 0.108,0.018 0.162,0.018 0.253,0 0.433,-0.09 0.532,-0.28 h 0.009 l 0.036,0.235 h 0.442 l -0.757,-4.76 z m 5.201,4.769 V -2.01 C 30.61,-2.064 30.52,-2.163 30.448,-2.307 30.33,-2.524 30.24,-2.776 30.195,-3.056 h 0.514 v -0.369 h -0.586 c -0.018,-0.153 -0.036,-0.352 -0.054,-0.595 0.018,-0.451 0.144,-0.676 0.369,-0.685 0.1,0 0.19,0.027 0.271,0.09 v -0.46 c -0.081,-0.027 -0.171,-0.045 -0.271,-0.045 -0.522,0 -0.793,0.361 -0.793,1.091 0,0.27 0.027,0.514 0.054,0.739 0.036,0.253 0.108,0.505 0.208,0.766 0.099,0.262 0.234,0.487 0.414,0.676 0.117,0.126 0.244,0.207 0.388,0.244 m 12.52,-0.009 h 0.459 l -1.316,-3.453 h -0.468 l -0.235,3.453 h 0.433 l 0.135,-2.804 h 0.018 c 0.036,0.126 0.09,0.298 0.162,0.505 0.063,0.208 0.145,0.442 0.235,0.685 0.09,0.253 0.198,0.541 0.315,0.874 0.117,0.325 0.198,0.568 0.262,0.74 m -2.29,-1.01 -0.378,-2.443 H 40.11 l 0.396,2.506 c 0.018,0.126 0.028,0.216 0.028,0.28 0,0.243 -0.109,0.36 -0.325,0.36 -0.18,-0.009 -0.315,-0.081 -0.415,-0.216 -0.099,-0.135 -0.171,-0.343 -0.225,-0.631 L 39.2,-5.066 h -0.424 l 0.532,3.453 h 0.441 l -0.045,-0.28 c 0.244,0.216 0.478,0.316 0.721,0.316 0.172,0 0.307,-0.055 0.406,-0.163 0.099,-0.108 0.144,-0.252 0.144,-0.441 0,-0.045 0,-0.09 -0.009,-0.126 0,-0.046 -0.009,-0.091 -0.009,-0.136 -0.009,-0.054 -0.018,-0.117 -0.018,-0.18 m -2.442,2.344 c 0.081,0 0.144,-0.028 0.198,-0.073 0.054,-0.054 0.081,-0.117 0.081,-0.198 0,-0.099 -0.036,-0.189 -0.108,-0.261 -0.072,-0.072 -0.163,-0.108 -0.262,-0.108 -0.081,0 -0.144,0.027 -0.198,0.081 -0.045,0.063 -0.072,0.144 -0.072,0.243 0.009,0.081 0.054,0.162 0.126,0.225 0.072,0.063 0.153,0.091 0.235,0.091 m 0.018,-1.334 -0.541,-3.453 h -0.442 l 0.532,3.453 z m -5.499,0 -0.045,-0.289 h 0.018 c 0.099,0.099 0.208,0.19 0.343,0.244 0.126,0.063 0.261,0.09 0.387,0.09 0.127,0 0.244,-0.036 0.343,-0.099 0.099,-0.073 0.171,-0.172 0.207,-0.298 0.235,0.261 0.496,0.388 0.775,0.388 0.181,0 0.316,-0.045 0.424,-0.145 0.099,-0.099 0.153,-0.243 0.153,-0.432 0,-0.072 -0.009,-0.18 -0.027,-0.316 l -0.405,-2.596 h -0.433 l 0.379,2.443 c 0.018,0.171 0.026,0.289 0.026,0.324 0,0.145 -0.026,0.235 -0.081,0.298 -0.045,0.054 -0.135,0.081 -0.261,0.081 -0.189,-0.009 -0.333,-0.099 -0.433,-0.261 -0.09,-0.163 -0.162,-0.388 -0.216,-0.685 l -0.333,-2.2 h -0.433 l 0.396,2.542 c 0.01,0.063 0.01,0.145 0.01,0.244 0,0.135 -0.028,0.225 -0.082,0.279 -0.054,0.054 -0.135,0.081 -0.261,0.081 -0.334,-0.027 -0.55,-0.351 -0.658,-0.973 l -0.342,-2.173 h -0.424 l 0.532,3.453 z m -2.307,-1.812 v 0.369 h 0.478 c 0.027,0.19 0.045,0.352 0.045,0.496 0,0.397 -0.126,0.595 -0.361,0.595 -0.054,-0.009 -0.108,-0.018 -0.162,-0.045 v 0.406 c 0.081,0.027 0.153,0.036 0.243,0.036 0.469,0 0.703,-0.361 0.703,-1.073 0,-0.243 -0.027,-0.505 -0.072,-0.784 z m 0,-1.65 v 0.46 c 0.153,0.117 0.261,0.361 0.324,0.721 h 0.451 c -0.063,-0.324 -0.18,-0.604 -0.352,-0.856 -0.117,-0.162 -0.261,-0.271 -0.423,-0.325 m 14.178,3.471 V -2.01 C 44.788,-2.064 44.698,-2.163 44.626,-2.307 44.5,-2.524 44.418,-2.776 44.364,-3.056 h 0.523 v -0.369 h -0.586 c -0.018,-0.153 -0.036,-0.352 -0.054,-0.595 0.018,-0.451 0.135,-0.676 0.37,-0.685 0.099,0 0.189,0.027 0.27,0.09 v -0.46 c -0.09,-0.027 -0.18,-0.045 -0.27,-0.045 -0.523,0 -0.793,0.361 -0.802,1.091 0.009,0.27 0.027,0.514 0.063,0.739 0.036,0.253 0.108,0.505 0.207,0.766 0.099,0.262 0.234,0.487 0.415,0.676 0.108,0.126 0.243,0.207 0.387,0.244 m 5.12,-0.009 -0.054,-0.406 h -0.577 l -0.487,-3.047 h -0.433 l 0.496,3.047 h -0.369 l 0.045,0.406 h 0.369 l 0.162,0.937 h 0.424 l -0.135,-0.937 z m -3.912,-3.272 0.081,0.523 c 0.153,-0.217 0.333,-0.334 0.559,-0.343 0.153,0.009 0.288,0.072 0.406,0.189 0.108,0.108 0.162,0.253 0.162,0.415 0,0.135 -0.027,0.261 -0.099,0.369 -0.073,0.108 -0.172,0.235 -0.316,0.379 -0.144,0.153 -0.243,0.279 -0.315,0.387 -0.072,0.109 -0.109,0.235 -0.109,0.379 0,0.018 0.009,0.054 0.009,0.099 0.01,0.045 0.01,0.072 0.01,0.099 0.054,0.262 0.18,0.46 0.36,0.604 0.18,0.144 0.379,0.217 0.604,0.217 0.252,0 0.451,-0.073 0.595,-0.217 l -0.081,-0.54 h -0.009 c -0.063,0.099 -0.135,0.18 -0.217,0.243 -0.09,0.063 -0.207,0.099 -0.36,0.099 -0.126,-0.009 -0.225,-0.063 -0.316,-0.162 -0.081,-0.09 -0.126,-0.189 -0.153,-0.298 0,-0.117 0.027,-0.225 0.072,-0.306 0.045,-0.09 0.108,-0.171 0.189,-0.252 0.082,-0.091 0.19,-0.19 0.307,-0.307 0.198,-0.189 0.306,-0.424 0.306,-0.685 0,-0.198 -0.054,-0.378 -0.153,-0.559 -0.09,-0.171 -0.225,-0.306 -0.396,-0.414 -0.172,-0.1 -0.352,-0.154 -0.559,-0.154 -0.189,0 -0.379,0.081 -0.577,0.235 m -1.208,1.46 v 0.369 h 0.478 c 0.027,0.19 0.036,0.352 0.036,0.496 0,0.397 -0.117,0.595 -0.352,0.595 -0.063,-0.009 -0.117,-0.018 -0.162,-0.045 v 0.406 c 0.072,0.027 0.153,0.036 0.243,0.036 0.469,0 0.704,-0.361 0.704,-1.073 0,-0.243 -0.027,-0.505 -0.073,-0.784 z m 0,-1.65 v 0.46 c 0.153,0.117 0.262,0.361 0.315,0.721 h 0.46 c -0.063,-0.324 -0.18,-0.604 -0.36,-0.856 -0.118,-0.162 -0.253,-0.271 -0.415,-0.325 m 6.201,3.471 V -2.01 C 50.989,-2.064 50.908,-2.163 50.827,-2.307 50.71,-2.524 50.62,-2.776 50.575,-3.056 h 0.513 v -0.369 h -0.586 c -0.018,-0.153 -0.036,-0.352 -0.054,-0.595 0.018,-0.451 0.145,-0.676 0.37,-0.685 0.099,0 0.189,0.027 0.27,0.09 v -0.46 c -0.081,-0.027 -0.171,-0.045 -0.27,-0.045 -0.523,0 -0.793,0.361 -0.793,1.091 0.009,0.27 0.027,0.514 0.054,0.739 0.045,0.253 0.108,0.505 0.207,0.766 0.099,0.262 0.235,0.487 0.415,0.676 0.117,0.126 0.243,0.207 0.387,0.244 m 5.021,-1.019 -0.37,-2.443 h -0.45 l 0.396,2.506 c 0.018,0.126 0.027,0.216 0.027,0.28 0,0.243 -0.117,0.36 -0.333,0.36 -0.181,-0.009 -0.316,-0.081 -0.415,-0.216 -0.099,-0.135 -0.171,-0.343 -0.216,-0.631 l -0.37,-2.299 h -0.432 l 0.54,3.453 h 0.442 l -0.045,-0.28 c 0.235,0.216 0.478,0.316 0.721,0.316 0.171,0 0.307,-0.055 0.406,-0.163 0.09,-0.108 0.144,-0.252 0.144,-0.441 0,-0.045 -0.009,-0.09 -0.009,-0.126 0,-0.046 -0.009,-0.091 -0.018,-0.136 0,-0.054 -0.009,-0.117 -0.018,-0.18 m -5.021,-0.802 v 0.369 h 0.478 c 0.027,0.19 0.045,0.352 0.045,0.496 0,0.397 -0.126,0.595 -0.36,0.595 -0.054,-0.009 -0.109,-0.018 -0.163,-0.045 v 0.406 c 0.082,0.027 0.163,0.036 0.244,0.036 0.469,0 0.703,-0.361 0.703,-1.073 0,-0.243 -0.027,-0.505 -0.072,-0.784 z m 0,-1.65 v 0.46 c 0.154,0.117 0.262,0.361 0.325,0.721 h 0.451 C 51.809,-4.218 51.683,-4.498 51.512,-4.75 51.395,-4.912 51.251,-5.021 51.088,-5.075 m 6.607,3.462 V -2.055 C 57.668,-2.064 57.65,-2.082 57.623,-2.1 57.533,-2.181 57.452,-2.316 57.371,-2.497 57.29,-2.677 57.227,-2.911 57.181,-3.2 57.145,-3.533 57.118,-3.804 57.1,-4.029 c 0.009,-0.216 0.045,-0.379 0.109,-0.505 0.053,-0.117 0.153,-0.171 0.288,-0.171 0.072,0 0.135,0.018 0.198,0.054 v -0.424 c -0.081,-0.027 -0.18,-0.045 -0.279,-0.045 -0.505,0 -0.766,0.361 -0.784,1.091 0.018,0.162 0.027,0.27 0.027,0.325 0,0.063 0.036,0.243 0.09,0.54 0.027,0.226 0.09,0.451 0.171,0.685 0.09,0.244 0.225,0.451 0.406,0.631 0.108,0.108 0.225,0.19 0.369,0.235 m 0,-3.462 v 0.424 c 0.136,0.072 0.244,0.225 0.325,0.46 0.117,0.333 0.198,0.667 0.243,0.991 0.018,0.243 0.027,0.415 0.027,0.514 0,0.478 -0.135,0.721 -0.388,0.721 -0.071,-0.009 -0.134,-0.036 -0.207,-0.09 v 0.442 c 0.108,0.027 0.216,0.045 0.343,0.045 0.468,-0.018 0.703,-0.37 0.703,-1.055 0,-0.387 -0.036,-0.73 -0.108,-1.009 -0.046,-0.199 -0.09,-0.37 -0.154,-0.541 -0.054,-0.162 -0.126,-0.316 -0.225,-0.46 -0.09,-0.144 -0.207,-0.261 -0.343,-0.351 -0.063,-0.037 -0.135,-0.073 -0.216,-0.091 m 4.786,1.578 -0.099,-0.631 c 0,-0.027 -0.009,-0.072 -0.009,-0.135 -0.009,-0.054 -0.009,-0.099 -0.018,-0.127 0.009,-0.189 0.045,-0.342 0.126,-0.45 z m 0,3.821 v -0.468 c -0.081,0.072 -0.171,0.099 -0.261,0.099 -0.072,0 -0.144,-0.027 -0.198,-0.099 -0.064,-0.072 -0.099,-0.18 -0.127,-0.325 l -0.189,-1.144 h 0.586 L 62.22,-2.019 h -0.577 l -0.487,-3.047 h -0.423 l 0.478,3.047 h -0.37 l 0.054,0.406 h 0.387 l 0.163,1.072 c 0.054,0.325 0.153,0.55 0.288,0.694 0.145,0.144 0.298,0.217 0.469,0.217 0.09,0 0.18,-0.019 0.279,-0.046 m 0,-0.468 V 0.324 C 62.517,0.315 62.562,0.306 62.599,0.288 L 62.526,-0.18 c -0.018,0.009 -0.036,0.027 -0.045,0.036 m 0,-4.696 v 1.343 l 0.289,1.884 h 0.45 l -0.342,-2.173 c -0.009,-0.054 -0.018,-0.135 -0.036,-0.243 -0.018,-0.099 -0.027,-0.189 -0.027,-0.253 0.009,-0.288 0.135,-0.423 0.369,-0.423 0.145,0 0.262,0.045 0.343,0.135 0.081,0.099 0.144,0.208 0.171,0.334 0.036,0.135 0.072,0.315 0.108,0.549 l 0.325,2.074 h 0.451 l -0.397,-2.479 c -0.099,-0.685 -0.46,-1.028 -1.055,-1.028 -0.315,0 -0.531,0.091 -0.649,0.28 m 4.065,0.495 c 0,-0.017 0,-0.036 -0.009,-0.045 0,-0.036 0.009,-0.063 0.009,-0.099 z m 0,2.732 v -0.045 l -0.045,-0.361 h -0.577 l -0.486,-3.047 h -0.433 l 0.487,3.047 h -0.37 l 0.054,0.406 h 0.361 l 0.162,0.937 h 0.433 l -0.144,-0.937 z m 3.002,0 h 0.441 l -0.081,-0.46 h 0.019 c 0.072,0.135 0.171,0.261 0.288,0.361 0.117,0.099 0.243,0.144 0.36,0.144 l -0.072,-0.505 h -0.135 c -0.144,0 -0.27,-0.063 -0.369,-0.18 -0.1,-0.109 -0.172,-0.334 -0.217,-0.649 L 69.44,-5.066 h -0.433 z m -3.002,-0.045 0.009,0.045 h -0.009 z m 0,-2.831 v 0.144 c 0,0.028 0.009,0.054 0.009,0.082 0,0.063 0.009,0.108 0.009,0.135 l 0.397,2.515 h 0.442 L 67.06,-3.786 c 0,-0.054 -0.009,-0.135 -0.027,-0.243 -0.018,-0.099 -0.036,-0.189 -0.036,-0.253 0.018,-0.288 0.135,-0.423 0.37,-0.423 0.153,0 0.261,0.045 0.351,0.135 0.081,0.099 0.135,0.208 0.171,0.334 0.027,0.135 0.064,0.315 0.1,0.549 l 0.333,2.074 h 0.451 l -0.397,-2.479 c -0.108,-0.685 -0.46,-1.028 -1.063,-1.028 -0.469,0 -0.722,0.208 -0.767,0.631 m 5.201,2.876 V -2.055 C 71.72,-2.064 71.702,-2.082 71.675,-2.1 c -0.09,-0.081 -0.171,-0.216 -0.252,-0.397 -0.081,-0.18 -0.144,-0.414 -0.19,-0.703 -0.045,-0.333 -0.072,-0.604 -0.081,-0.829 0.009,-0.216 0.045,-0.379 0.099,-0.505 0.063,-0.117 0.163,-0.171 0.298,-0.171 0.072,0 0.135,0.018 0.198,0.054 v -0.424 c -0.09,-0.027 -0.18,-0.045 -0.279,-0.045 -0.505,0 -0.766,0.361 -0.784,1.091 0.018,0.162 0.027,0.27 0.027,0.325 0,0.063 0.027,0.243 0.09,0.54 0.027,0.226 0.09,0.451 0.171,0.685 0.081,0.244 0.225,0.451 0.406,0.631 0.108,0.108 0.225,0.19 0.369,0.235 m 0,-3.462 v 0.424 c 0.136,0.072 0.244,0.225 0.325,0.46 0.117,0.333 0.198,0.667 0.243,0.991 0.009,0.243 0.018,0.415 0.018,0.514 0,0.478 -0.126,0.721 -0.379,0.721 -0.071,-0.009 -0.144,-0.036 -0.207,-0.09 v 0.442 c 0.099,0.027 0.216,0.045 0.343,0.045 0.468,-0.018 0.703,-0.37 0.703,-1.055 0,-0.387 -0.036,-0.73 -0.108,-1.009 -0.046,-0.199 -0.091,-0.37 -0.154,-0.541 -0.054,-0.162 -0.126,-0.316 -0.225,-0.46 -0.09,-0.144 -0.207,-0.261 -0.343,-0.351 -0.072,-0.037 -0.144,-0.073 -0.216,-0.091 m 4.083,3.489 v -0.415 c -0.117,-0.081 -0.207,-0.216 -0.27,-0.397 -0.099,-0.261 -0.18,-0.612 -0.243,-1.054 0,-0.027 -0.018,-0.117 -0.037,-0.28 -0.027,-0.162 -0.036,-0.306 -0.045,-0.414 0.009,-0.199 0.045,-0.352 0.099,-0.46 0.064,-0.099 0.172,-0.153 0.325,-0.153 0.063,0 0.117,0.018 0.171,0.045 v -0.279 c -0.126,-0.082 -0.261,-0.127 -0.396,-0.127 -0.226,0 -0.388,0.081 -0.487,0.244 -0.09,0.162 -0.144,0.387 -0.153,0.676 0.009,0.243 0.063,0.649 0.153,1.226 0.045,0.243 0.108,0.477 0.189,0.684 0.081,0.208 0.198,0.379 0.343,0.523 0.099,0.09 0.216,0.154 0.351,0.181 m 0,-3.407 v 0.279 c 0.054,0.036 0.108,0.081 0.154,0.144 0.081,0.126 0.144,0.262 0.189,0.424 0.045,0.162 0.09,0.342 0.117,0.531 0.027,0.19 0.054,0.361 0.072,0.514 0.036,0.271 0.054,0.451 0.054,0.541 0,0.424 -0.117,0.631 -0.351,0.631 H 75.984 C 75.929,-1.947 75.875,-1.965 75.83,-2.001 v 0.415 c 0.063,0.009 0.127,0.018 0.19,0.018 0.234,0 0.405,-0.09 0.495,-0.28 l 0.352,2.163 h 0.442 L 76.461,-5.066 H 76.02 l 0.045,0.262 H 76.047 C 75.975,-4.885 75.902,-4.949 75.83,-4.993 m 2.596,3.38 v -0.442 c -0.018,-0.009 -0.045,-0.027 -0.063,-0.045 -0.099,-0.081 -0.18,-0.216 -0.261,-0.397 -0.081,-0.18 -0.144,-0.414 -0.181,-0.703 -0.045,-0.333 -0.072,-0.604 -0.09,-0.829 0.018,-0.216 0.045,-0.379 0.108,-0.505 0.054,-0.117 0.154,-0.171 0.298,-0.171 0.063,0 0.126,0.018 0.189,0.054 v -0.424 c -0.081,-0.027 -0.18,-0.045 -0.27,-0.045 -0.514,0 -0.775,0.361 -0.793,1.091 0.018,0.162 0.027,0.27 0.027,0.325 0,0.063 0.036,0.243 0.09,0.54 0.027,0.226 0.09,0.451 0.171,0.685 0.09,0.244 0.225,0.451 0.406,0.631 0.108,0.108 0.234,0.19 0.369,0.235 m 0,-3.462 v 0.424 c 0.135,0.072 0.243,0.225 0.334,0.46 0.117,0.333 0.189,0.667 0.234,0.991 0.018,0.243 0.027,0.415 0.027,0.514 0,0.478 -0.126,0.721 -0.387,0.721 -0.073,-0.009 -0.136,-0.036 -0.208,-0.09 v 0.442 c 0.108,0.027 0.217,0.045 0.343,0.045 0.469,-0.018 0.703,-0.37 0.703,-1.055 0,-0.387 -0.036,-0.73 -0.108,-1.009 -0.046,-0.199 -0.091,-0.37 -0.145,-0.541 -0.063,-0.162 -0.135,-0.316 -0.225,-0.46 -0.099,-0.144 -0.216,-0.261 -0.351,-0.351 -0.064,-0.037 -0.136,-0.073 -0.217,-0.091 M 82.969,0 V -0.397 H 82.915 82.707 L 82.41,-2.226 h 0.316 c 0.09,0 0.171,0.009 0.243,0.027 v -0.523 c -0.108,0.054 -0.271,0.081 -0.478,0.081 h -0.135 l -0.316,-2.01 h 0.145 c 0.225,0 0.405,0.027 0.55,0.09 0.09,0.036 0.171,0.09 0.234,0.171 V -4.93 C 82.762,-5.021 82.482,-5.066 82.14,-5.066 H 81.5 L 82.302,0 Z m 1.848,-1.613 h 0.441 l -0.081,-0.46 h 0.018 c 0.072,0.135 0.171,0.261 0.289,0.361 0.117,0.099 0.243,0.144 0.36,0.144 l -0.072,-0.505 h -0.135 c -0.144,0 -0.271,-0.063 -0.37,-0.18 -0.099,-0.109 -0.171,-0.334 -0.216,-0.649 L 84.709,-5.066 H 84.276 Z M 82.969,-4.93 v 0.54 c 0.036,0.045 0.072,0.091 0.099,0.145 0.081,0.153 0.135,0.369 0.171,0.649 0,0.027 0,0.072 0.009,0.126 0,0.063 0.009,0.108 0.009,0.135 0,0.243 -0.063,0.424 -0.171,0.532 -0.036,0.027 -0.072,0.054 -0.117,0.081 v 0.523 c 0.126,0.036 0.225,0.108 0.288,0.216 0.099,0.153 0.181,0.397 0.235,0.703 0,0.027 0.009,0.081 0.018,0.18 0.009,0.099 0.018,0.181 0.018,0.235 0,0.162 -0.045,0.279 -0.126,0.351 -0.081,0.072 -0.226,0.108 -0.433,0.117 V 0 h 0.153 c 0.307,0 0.523,-0.072 0.676,-0.198 0.144,-0.135 0.225,-0.352 0.225,-0.658 0,-0.163 -0.017,-0.316 -0.044,-0.478 -0.037,-0.153 -0.082,-0.307 -0.154,-0.451 -0.063,-0.135 -0.153,-0.27 -0.252,-0.378 -0.108,-0.117 -0.234,-0.208 -0.379,-0.28 0.171,-0.054 0.307,-0.144 0.397,-0.261 0.108,-0.117 0.153,-0.306 0.153,-0.577 0,-0.135 -0.009,-0.234 -0.018,-0.297 C 83.681,-3.939 83.6,-4.227 83.492,-4.444 83.384,-4.651 83.221,-4.813 83.005,-4.912 82.996,-4.921 82.987,-4.921 82.969,-4.93 m 4.002,3.344 v -0.406 c -0.081,-0.054 -0.153,-0.153 -0.216,-0.27 -0.109,-0.226 -0.19,-0.505 -0.235,-0.821 -0.009,-0.045 -0.027,-0.153 -0.045,-0.324 -0.027,-0.171 -0.045,-0.325 -0.063,-0.442 -0.018,-0.117 -0.027,-0.225 -0.027,-0.333 0.009,-0.189 0.036,-0.334 0.09,-0.433 0.054,-0.099 0.153,-0.144 0.289,-0.144 0.081,0 0.153,0.018 0.207,0.054 v -0.297 c -0.027,-0.027 -0.063,-0.037 -0.09,-0.055 -0.117,-0.045 -0.244,-0.063 -0.388,-0.063 -0.189,0.009 -0.315,0.072 -0.405,0.199 -0.082,0.117 -0.127,0.306 -0.145,0.559 0,0.207 0.018,0.468 0.063,0.793 0.046,0.324 0.082,0.54 0.109,0.658 0.063,0.288 0.126,0.532 0.207,0.721 0.072,0.189 0.18,0.342 0.315,0.45 0.099,0.073 0.208,0.127 0.334,0.154 m 1.325,-3.299 0.081,0.523 c 0.162,-0.217 0.351,-0.334 0.568,-0.343 0.162,0.009 0.297,0.072 0.406,0.189 0.117,0.108 0.171,0.253 0.171,0.415 0,0.135 -0.036,0.261 -0.099,0.369 -0.072,0.108 -0.181,0.235 -0.325,0.379 -0.135,0.153 -0.243,0.279 -0.315,0.387 -0.072,0.109 -0.109,0.235 -0.118,0.379 0.009,0.018 0.009,0.054 0.019,0.099 0,0.045 0.009,0.072 0.009,0.099 0.063,0.262 0.18,0.46 0.36,0.604 0.189,0.144 0.388,0.217 0.613,0.217 0.252,0 0.442,-0.073 0.586,-0.217 l -0.072,-0.54 h -0.018 c -0.054,0.099 -0.126,0.18 -0.217,0.243 -0.081,0.063 -0.198,0.099 -0.36,0.099 -0.117,-0.009 -0.225,-0.063 -0.307,-0.162 -0.081,-0.09 -0.135,-0.189 -0.153,-0.298 0,-0.117 0.018,-0.225 0.063,-0.306 0.045,-0.09 0.108,-0.171 0.198,-0.252 0.082,-0.091 0.181,-0.19 0.298,-0.307 0.207,-0.189 0.306,-0.424 0.306,-0.685 0,-0.198 -0.045,-0.378 -0.144,-0.559 -0.099,-0.171 -0.234,-0.306 -0.396,-0.414 -0.172,-0.1 -0.361,-0.154 -0.559,-0.154 -0.198,0 -0.397,0.081 -0.595,0.235 m -1.325,-0.117 v 0.297 c 0.063,0.036 0.117,0.081 0.162,0.135 0.09,0.126 0.153,0.279 0.207,0.487 0.046,0.198 0.1,0.505 0.163,0.901 0.045,0.253 0.063,0.478 0.063,0.658 0,0.406 -0.117,0.604 -0.352,0.604 -0.09,0 -0.171,-0.027 -0.243,-0.072 v 0.406 c 0.063,0.009 0.126,0.018 0.198,0.018 0.225,0 0.388,-0.09 0.496,-0.28 l 0.045,0.235 h 0.433 L 87.602,-5.066 H 87.16 l 0.054,0.262 h -0.018 c -0.072,-0.09 -0.144,-0.153 -0.225,-0.198"
             style="fill:#fbc707;fill-opacity:1;fill-rule:nonzero;stroke:none"
             id="path222"
             inkscape:connector-curvature="0" /></g><g
           id="g224"
           transform="translate(136.7375,77.6262)"><path
             d="M 0,0 -0.847,-5.381 H -1.28 L -0.424,0 Z m -1.55,-0.595 c 0.081,0 0.144,-0.027 0.198,-0.072 0.045,-0.054 0.072,-0.117 0.072,-0.198 0,-0.099 -0.036,-0.19 -0.108,-0.262 -0.072,-0.072 -0.153,-0.108 -0.252,-0.108 -0.082,0 -0.154,0.027 -0.199,0.081 -0.054,0.063 -0.081,0.144 -0.081,0.244 0.018,0.081 0.063,0.162 0.135,0.225 0.072,0.063 0.145,0.09 0.235,0.09 m 0.009,-1.334 -0.532,-3.452 h -0.451 l 0.541,3.452 z"
             style="fill:#fbc707;fill-opacity:1;fill-rule:nonzero;stroke:none"
             id="path226"
             inkscape:connector-curvature="0" /></g><g
           id="g228"
           transform="translate(57.6803,126.7225)"><path
             d="m 0,0 v -6.832 l 6.796,-6.796 h 6.832 z"
             style="fill:#fbc707;fill-opacity:1;fill-rule:nonzero;stroke:none"
             id="path230"
             inkscape:connector-curvature="0" /></g><g
           id="g232"
           transform="translate(57.6623,99.4747)"><path
             d="M 0,0 -13.61,13.619 0,27.23 V 20.398 L -6.814,13.619 0,6.832 Z m 0.018,27.212 v -6.76 L 6.814,13.619 H 13.61 L 0.018,-0.009 0,0 V 6.832 L 0.018,6.814 6.814,13.619 0.018,20.416 0,20.398 v 6.832 l 0.018,0.018 z"
             style="fill:#fbc707;fill-opacity:1;fill-rule:nonzero;stroke:none"
             id="path234"
             inkscape:connector-curvature="0" /></g></g></g><g
       id="g236"
       inkscape:export-filename="G:\Users\suitedoalex\sites\cvm-logo-6.png"
       inkscape:export-xdpi="21.356455"
       inkscape:export-ydpi="21.356455"><g
         id="g238"
         clip-path="url(#clipPath242)"
         transform="matrix(25.523899,0,0,25.523899,-758.00377,-1151.604)"
         inkscape:export-filename="G:\Users\suitedoalex\sites\cvm-logo-4.png"
         inkscape:export-xdpi="11.972666"
         inkscape:export-ydpi="11.972666"><g
           id="g244"
           transform="translate(57.6893,92.6247)"><path
             d="M 0,0 13.646,13.664 V -0.748 h -27.283 v 14.412 z"
             style="fill:#187452;fill-opacity:1;fill-rule:nonzero;stroke:none"
             id="path246"
             inkscape:connector-curvature="0" /></g><g
           id="g248"
           transform="translate(57.6803,119.8903)"><path
             d="M 0,0 -6.832,-6.796 0,-13.628 6.796,-6.796 Z"
             style="fill:#187452;fill-opacity:1;fill-rule:nonzero;stroke:none"
             id="path250"
             inkscape:connector-curvature="0" /></g><g
           id="g252"
           transform="translate(113.1041,93.7604)"><path
             d="M 0,0 C -0.135,-0.496 -0.279,-0.992 -0.414,-1.469 -0.27,-1.424 -0.126,-1.388 0,-1.361 Z M 0,17.387 V 16.801 C -1.505,14.358 -3.101,11.735 -4.768,8.932 -6.589,5.877 -8.626,2.406 -10.879,-1.469 c -0.216,0.063 -0.424,0.099 -0.64,0.126 -0.217,0.027 -0.415,0.036 -0.622,0.036 -0.198,0 -0.396,-0.009 -0.595,-0.036 -0.216,-0.027 -0.433,-0.063 -0.649,-0.126 -0.397,2.956 -0.883,6.012 -1.442,9.166 -0.559,3.146 -1.199,6.409 -1.929,9.78 0.379,-0.054 0.748,-0.099 1.109,-0.135 0.369,-0.027 0.739,-0.045 1.117,-0.045 0.388,0 0.785,0.018 1.181,0.045 0.406,0.036 0.82,0.081 1.244,0.135 0.243,-2.578 0.523,-5.02 0.838,-7.346 0.298,-2.316 0.658,-4.543 1.046,-6.661 1.559,2.316 3.001,4.651 4.326,6.985 1.325,2.344 2.515,4.678 3.57,7.022 0.225,-0.054 0.45,-0.099 0.667,-0.135 0.225,-0.027 0.441,-0.045 0.676,-0.045 0.234,0 0.468,0.018 0.703,0.045 C -0.18,17.36 -0.09,17.369 0,17.387 M -22.155,-0.857 c -0.847,-0.342 -1.713,-0.594 -2.578,-0.766 -0.865,-0.171 -1.749,-0.261 -2.65,-0.261 -2.776,0 -4.939,0.739 -6.508,2.217 -1.568,1.469 -2.352,3.515 -2.352,6.13 0,3.425 1.082,6.174 3.245,8.265 2.163,2.082 5.011,3.128 8.554,3.128 1.289,0 2.451,-0.127 3.506,-0.379 1.046,-0.243 1.956,-0.622 2.722,-1.109 -0.262,-0.531 -0.487,-1.054 -0.694,-1.577 -0.216,-0.523 -0.388,-1.046 -0.55,-1.568 l -0.225,0.171 c -0.424,0.91 -1.082,1.631 -1.974,2.145 -0.883,0.514 -1.893,0.775 -3.038,0.775 -1.162,0 -2.19,-0.243 -3.073,-0.748 -0.902,-0.487 -1.704,-1.244 -2.425,-2.271 -0.649,-0.956 -1.163,-2.073 -1.514,-3.335 -0.352,-1.271 -0.541,-2.587 -0.541,-3.948 0,-2.019 0.478,-3.588 1.415,-4.705 0.946,-1.109 2.271,-1.668 3.975,-1.668 0.901,0 1.794,0.162 2.686,0.478 0.892,0.297 1.758,0.766 2.605,1.37 l 0.243,-0.216 c -0.171,-0.415 -0.324,-0.803 -0.459,-1.145 -0.136,-0.342 -0.253,-0.667 -0.37,-0.983 M 0,16.801 c 0.144,0.225 0.279,0.451 0.424,0.676 C 0.279,17.441 0.144,17.414 0,17.387 Z M 0,-1.361 V 0 c 0.613,2.163 1.244,4.543 1.893,7.139 0.802,3.199 1.604,6.643 2.406,10.338 0.244,-0.054 0.478,-0.099 0.704,-0.135 0.225,-0.027 0.45,-0.045 0.676,-0.045 0.225,0 0.459,0.018 0.694,0.045 0.234,0.036 0.468,0.081 0.703,0.135 0.577,-2.307 1.199,-4.543 1.847,-6.724 0.658,-2.172 1.343,-4.29 2.056,-6.346 1.514,1.938 3.082,4.003 4.687,6.175 1.604,2.19 3.253,4.479 4.966,6.895 0.225,-0.054 0.45,-0.099 0.676,-0.135 0.225,-0.027 0.46,-0.045 0.676,-0.045 0.243,0 0.487,0.018 0.721,0.045 0.234,0.036 0.469,0.081 0.703,0.135 -1.001,-4.39 -1.776,-8.238 -2.335,-11.555 -0.549,-3.308 -0.838,-5.769 -0.856,-7.391 -0.324,0.072 -0.649,0.108 -1.018,0.144 -0.352,0.036 -0.721,0.054 -1.109,0.054 -0.397,0 -0.784,-0.018 -1.154,-0.054 -0.369,-0.036 -0.739,-0.072 -1.099,-0.144 0.279,1.009 0.595,2.442 0.946,4.335 0.361,1.884 0.802,4.543 1.361,7.977 C 16.45,8.779 14.863,6.706 13.385,4.615 11.889,2.533 10.501,0.442 9.203,-1.686 H 8.292 C 7.806,0.712 7.274,2.983 6.679,5.147 6.084,7.319 5.444,9.383 4.741,11.339 L 3.245,5.192 C 3.074,4.471 2.884,3.533 2.677,2.397 2.479,1.244 2.262,-0.027 2.046,-1.469 1.767,-1.397 1.523,-1.343 1.325,-1.316 1.136,-1.289 0.947,-1.271 0.784,-1.271 0.595,-1.271 0.415,-1.289 0.225,-1.316 0.153,-1.325 0.081,-1.343 0,-1.361"
             style="fill:#187452;fill-opacity:1;fill-rule:nonzero;stroke:none"
             id="path254"
             inkscape:connector-curvature="0" /></g></g></g></g></svg>