<svg version="1.2" xmlns="http://www.w3.org/2000/svg" viewBox="0 0 958 882" width="958" height="882">
	<title>susep_logo</title>
	<style>
		tspan { white-space:pre } 
		.s0 { fill: #018136 } 
		.t1 { font-size: 26px;line-height: 27px;fill: #000000;font-family: "Arial" } 
		.s2 { fill: #fdcd01 } 
	</style>
	<g id="Camada 2">
		<g id="&lt;Group&gt;">
			<path id="&lt;Path&gt;" class="s0" d="m405.2 293.1c-20.2-12.8-29.6-21.7-29.6-28.2v-9.9c0-3.3 0.3-7.1 2.5-9.2 1.5-1.5 3.8-2.2 7.1-2.1h0.3c2.7-0.1 4.8 0.6 6.4 2.1 2.7 2.7 3.3 7.5 3.3 11v19.8h42.5v-21.6c0-22.9-16.1-33.1-52.4-33.1-36.5 0-54.2 10.8-54.2 33.1v14.4c0 11 11.9 23.7 34.5 36.8 26.3 15.1 29.6 23.4 29.6 29v10.2c0 4 0 8.1-2.3 10.4-1.5 1.5-3.9 2.3-7.4 2.3-10 0-11.9-4.2-11.9-11.4v-27.4h-42.5v29.4c0 22.3 17.8 33.2 54.4 33.2 36.5 0 54.2-10.9 54.2-33.2v-19.4c0-11.9-12.6-22.3-34.5-36.2z"/>
			<path id="&lt;Path&gt;" class="s0" d="m647.2 293.1c-20.2-12.8-29.6-21.7-29.6-28.2v-9.9c0-3.3 0.3-7.1 2.5-9.2 1.5-1.5 3.8-2.2 7.1-2.1h0.3c2.7-0.1 4.8 0.6 6.4 2.1 2.7 2.7 3.3 7.5 3.3 11v19.8h42.5v-21.6c0-22.9-16.1-33.1-52.4-33.1-36.5 0-54.2 10.8-54.2 33.1v14.4c0 14.3 11.1 23.2 34.5 36.8 26.3 15.1 29.6 23.4 29.6 29v10.2c0 4 0 8.1-2.3 10.4-1.5 1.5-3.9 2.3-7.4 2.3-10 0-11.9-4.2-11.9-11.4v-27.4h-42.5v29.4c0 22.3 17.8 33.2 54.4 33.2 36.5 0 54.2-10.9 54.2-33.2v-19.4c0-14.3-12.2-22.1-34.5-36.2z"/>
			<path id="&lt;Path&gt;" class="s0" d="m519.3 344.7c0 6.9-1.4 13.4-11.4 13.4-9.9 0-11.3-6.5-11.3-13.4v-120.4h-43.7v124.4c0 22 18.5 33.2 55 33.2 36.6 0 55.1-11.2 55.1-33.2v-124.4h-43.7z"/>
			<path id="&lt;Path&gt;" class="s0" d="m695.7 379.4h95.2v-21.8h-49.3v-51.8h41.3v-15.9h-41.3v-43.8h49.3v-21.8h-95.2z"/>
			<path id="&lt;Compound Path&gt;" fill-rule="evenodd" class="s0" d="m907.5 257.5v37.1c-0.7 16.7-21.2 25.2-61.1 25.2q-0.2 0-0.4 0h-2.1v59.6h-44.9v-155.1h57.6c34.7 0.1 50.9 10.6 50.9 33.2zm-63.6 42.4h3.9c5.2 0 6.9-0.1 9-0.6 5.5-1.2 5.8-7 5.8-17v-19.4c0-4.7 0-11.1-3.4-14.5-1.5-1.6-3.7-2.3-6.5-2.3h-8.8z"/>
		</g>
		<text id="Superintendência
de Seguros Privados
" style="transform: matrix(2,0,0,2,327.059,444.866)" >
			<tspan x="0" y="0" class="t1" dx="0 1 1 1 1 1 1 1 1 1 1 1 1 1 1 1 1" >Superintendência
</tspan>
			<tspan x="0" y="27" class="t1" dx="0 1 1 1 1 1 1 1 1 1 1 1 1 1 1 1 1 1 1 1" >de Seguros Privados
</tspan>
		</text>
		<g id="&lt;Group&gt;">
			<g id="&lt;Group&gt;">
				<path id="&lt;Path&gt;" class="s0" d="m164.1 302.3l-44.5-44.2-44.2 44.5 44.5 44.1z"/>
				<path id="&lt;Path&gt;" class="s0" d="m211.8 254.3l-44.5-44.2-44.2 44.5 44.5 44.1z"/>
				<path id="&lt;Path&gt;" class="s0" d="m259.3 206.5l-44.5-44.2-44.1 44.4 44.4 44.2z"/>
			</g>
		</g>
		<g id="&lt;Group&gt;">
			<g id="&lt;Group&gt;">
				<path id="&lt;Path&gt;" class="s2" d="m220 302.1l44.5 44.2 44.2-44.5-44.5-44.2z"/>
				<path id="&lt;Path&gt;" class="s2" d="m171.8 254.2l44.5 44.1 44.1-44.4-44.4-44.2z"/>
				<path id="&lt;Path&gt;" class="s2" d="m171.9 350.5l44.5 44.2 44.1-44.5-44.4-44.1z"/>
				<path id="&lt;Path&gt;" class="s2" d="m123.7 399.1l44.4 44.1 44.2-44.4-44.5-44.2z"/>
			</g>
		</g>
		<path id="&lt;Path&gt;" class="s0" d="m212.3 350.2l-44.5-44.1-44.1 44.4 44.4 44.2z"/>
	</g>
</svg>