<?xml version="1.0" encoding="iso-8859-1"?>
<!-- Uploaded to: SVG Repo, www.svgrepo.com, Generator: SVG Repo Mixer Tools -->
<svg fill="#000000" version="1.1" id="Layer_1" xmlns="http://www.w3.org/2000/svg" xmlns:xlink="http://www.w3.org/1999/xlink" 
	 viewBox="0 0 512 512" xml:space="preserve">
<g>
	<g>
		<path d="M0,325.482v47.02h31.347v-15.673H15.673v-15.673h32.218c-5.323,6.707-8.513,15.179-8.513,24.388
			c0,21.679,17.636,39.314,39.313,39.314c12.845,0,24.27-6.193,31.448-15.749c7.17,9.556,18.58,15.749,31.41,15.749
			c19.255,0,35.304-13.987,38.589-32.355h9.384c3.297,18.368,19.383,32.355,38.685,32.355c12.862,0,24.3-6.209,31.478-15.786
			c7.177,9.578,18.616,15.786,31.478,15.786c21.677,0,39.313-17.636,39.313-39.314c0-9.208-3.19-17.68-8.513-24.388h32.256v15.673
			h-15.673v15.673h31.347v-47.02H0z M102.31,366.508c-0.51,12.59-10.906,22.675-23.617,22.675c-13.035,0-23.64-10.605-23.64-23.641
			c0-13.035,10.605-23.641,23.64-23.641c12.711,0,23.107,10.085,23.617,22.674c-0.008,0.322-0.024,0.643-0.024,0.966
			S102.303,366.186,102.31,366.508z M110.139,341.976c-0.209-0.279-0.428-0.549-0.645-0.82h1.288
			C110.566,341.428,110.348,341.697,110.139,341.976z M165.094,365.55c0,13.032-10.561,23.635-23.543,23.635
			c-12.686,0-23.06-10.085-23.569-22.674c0.007-0.322,0.024-0.643,0.024-0.966s-0.017-0.644-0.024-0.967
			c0.508-12.589,10.871-22.674,23.544-22.674c12.995,0,23.568,10.605,23.568,23.641V365.55z M189.881,356.829h-10.098
			c-1.32-5.819-3.929-11.148-7.513-15.673h25.138C193.817,345.681,191.203,351.011,189.881,356.829z M228.21,389.183
			c-13.036,0-23.641-10.605-23.641-23.641c0-13.035,10.605-23.641,23.641-23.641s23.641,10.605,23.641,23.641
			C251.851,378.579,241.246,389.183,228.21,389.183z M259.687,342.015c-0.218-0.293-0.449-0.575-0.676-0.86h1.353
			C260.138,341.441,259.907,341.723,259.687,342.015z M291.165,389.183c-13.036,0-23.641-10.605-23.641-23.641
			c0-13.035,10.605-23.641,23.641-23.641c13.035,0,23.64,10.605,23.64,23.641C314.805,378.579,304.2,389.183,291.165,389.183z"/>
	</g>
</g>
<g>
	<g>
		<rect x="70.008" y="357.877" width="16.718" height="15.673"/>
	</g>
</g>
<g>
	<g>
		<rect x="133.747" y="357.877" width="15.673" height="15.673"/>
	</g>
</g>
<g>
	<g>
		<rect x="220.473" y="357.877" width="15.674" height="15.673"/>
	</g>
</g>
<g>
	<g>
		<rect x="283.167" y="357.877" width="15.673" height="15.673"/>
	</g>
</g>
<g>
	<g>
		<path d="M377.208,160.388v212.114h24.981c3.707,17.853,19.557,31.31,38.493,31.31c21.677,0,39.313-17.636,39.313-39.314
			c0-21.679-17.636-39.314-39.313-39.314c-19.053,0-34.98,13.626-38.558,31.645h-9.243V176.062h95.086v15.673h-71.053v85.682h71.053
			v32.392h-15.673v15.673h15.673v24.033h15.673V160.388H377.208z M440.683,340.857c13.035,0,23.64,10.605,23.64,23.641
			c0,13.036-10.605,23.641-23.64,23.641c-13.036,0-23.641-10.605-23.641-23.641C417.042,351.462,427.646,340.857,440.683,340.857z
			 M487.967,261.743h-7.314v-22.988H464.98v22.988h-32.392v-54.335h55.38V261.743z"/>
	</g>
</g>
<g>
	<g>
		<rect x="433.633" y="356.832" width="15.673" height="15.673"/>
	</g>
</g>
<g>
	<g>
		<path d="M345.861,301.449V160.388H22.988v141.061h-7.314v15.673H354.22v-15.673H345.861z M330.188,301.449H38.661V176.062h291.526
			V301.449z"/>
	</g>
</g>
<g>
	<g>
		<polygon points="54.335,191.735 54.335,285.776 70.008,285.776 70.008,207.409 78.367,207.409 78.367,191.735 		"/>
	</g>
</g>
<g>
	<g>
		<polygon points="95.086,191.735 95.086,285.776 110.759,285.776 110.759,207.409 118.073,207.409 118.073,191.735 		"/>
	</g>
</g>
<g>
	<g>
		<polygon points="133.747,191.735 133.747,285.776 149.42,285.776 149.42,207.409 157.78,207.409 157.78,191.735 		"/>
	</g>
</g>
<g>
	<g>
		<polygon points="173.453,191.735 173.453,285.776 189.127,285.776 189.127,207.409 196.441,207.409 196.441,191.735 		"/>
	</g>
</g>
<g>
	<g>
		<polygon points="212.114,191.735 212.114,285.776 227.788,285.776 227.788,207.409 236.147,207.409 236.147,191.735 		"/>
	</g>
</g>
<g>
	<g>
		<polygon points="252.865,191.735 252.865,285.776 268.539,285.776 268.539,207.409 275.853,207.409 275.853,191.735 		"/>
	</g>
</g>
<g>
	<g>
		<polygon points="291.527,191.735 291.527,285.776 307.2,285.776 307.2,207.409 314.514,207.409 314.514,191.735 		"/>
	</g>
</g>
<g>
	<g>
		<rect x="487.967" y="356.832" width="24.033" height="15.673"/>
	</g>
</g>
<g>
	<g>
		<rect x="416.914" y="293.093" width="16.718" height="15.673"/>
	</g>
</g>
<g>
	<g>
		<polygon points="388.817,136.356 359.272,107.142 348.252,118.287 382.376,152.029 424.229,152.029 424.229,136.356 		"/>
	</g>
</g>
<g>
	<g>
		<rect x="22.988" y="136.359" width="322.873" height="15.673"/>
	</g>
</g>
</svg>